<?xml version="1.0" standalone="no"?>
<!DOCTYPE svg PUBLIC "-//W3C//DTD SVG 1.1//EN" "http://www.w3.org/Graphics/SVG/1.1/DTD/svg11.dtd" >
<svg xmlns="http://www.w3.org/2000/svg" xmlns:xlink="http://www.w3.org/1999/xlink" version="1.1">
<metadata>
Created by FontForge 20170924 at Wed Aug 19 18:47:47 2015
 By www-data
Copyright (c) 2015 by Henrik Kubel, A2-TYPE. All rights reserved.
</metadata>
<defs>
<font id="NYTMagSans-Blk" horiz-adv-x="388" >
  <font-face 
    font-family="NYTMag Sans Blk"
    font-weight="800"
    font-stretch="normal"
    units-per-em="1000"
    panose-1="0 0 0 0 0 0 0 0 0 0"
    ascent="750"
    descent="-250"
    x-height="494"
    cap-height="700"
    bbox="-180 -306 1191 1021"
    underline-thickness="23"
    underline-position="-122"
    unicode-range="U+0020-F6C3"
  />
<missing-glyph horiz-adv-x="715" 
d="M75 0v700h565v-700h-565zM125 47h465v606h-465v-606z" />
    <glyph glyph-name=".notdef" horiz-adv-x="715" 
d="M75 0v700h565v-700h-565zM125 47h465v606h-465v-606z" />
    <glyph glyph-name=".null" horiz-adv-x="500" 
 />
    <glyph glyph-name="nonmarkingreturn" horiz-adv-x="333" 
 />
    <glyph glyph-name="space" unicode=" " horiz-adv-x="217" 
 />
    <glyph glyph-name="exclam" unicode="!" horiz-adv-x="306" 
d="M71 252l-8 448h180l-9 -448h-163zM66 0v179h174v-179h-174z" />
    <glyph glyph-name="quotedbl" unicode="&#x22;" horiz-adv-x="434" 
d="M379 402h-137v298h137v-298zM191 402h-136v298h136v-298z" />
    <glyph glyph-name="numbersign" unicode="#" horiz-adv-x="603" 
d="M359 289v115h-115v-115h115zM359 0v206h-115v-206h-95v206h-112v83h112v115h-112v83h112v213h95v-213h115v213h95v-213h112v-83h-112v-115h112v-83h-112v-206h-95z" />
    <glyph glyph-name="dollar" unicode="$" horiz-adv-x="624" 
d="M234 510q0 -36 50 -57v110q-50 -14 -50 -53zM403 192q0 37 -50 58v-112q50 15 50 54zM353 -75h-69v65q-89 6 -157 45.5t-97 104.5l150 72q13 -29 41 -49.5t63 -26.5v137l-64 20q-170 54 -170 206q0 81 64 141.5t170 69.5v60h69v-61q75 -7 133.5 -39.5t92.5 -85.5
l-137 -84q-28 46 -89 62v-132l42 -13q94 -30 144 -76t50 -131q0 -87 -64 -148t-172 -71v-66z" />
    <glyph glyph-name="percent" unicode="%" horiz-adv-x="799" 
d="M376 537q0 -74 -46.5 -124t-125.5 -50t-126 50t-47 124q0 76 47 125.5t126 49.5t125.5 -49.5t46.5 -125.5zM192 0h-112l529 700h109zM131 537q0 -42 19.5 -64.5t53.5 -22.5t53.5 23t19.5 64q0 42 -20 65.5t-53 23.5t-53 -23.5t-20 -65.5zM768 162q0 -74 -46.5 -124
t-125.5 -50t-126 50t-47 124q0 76 47 125.5t126 49.5t125.5 -49.5t46.5 -125.5zM523 162q0 -42 19.5 -64.5t53.5 -22.5t53.5 23t19.5 64q0 42 -20 65.5t-53 23.5t-53 -23.5t-20 -65.5z" />
    <glyph glyph-name="ampersand" unicode="&#x26;" horiz-adv-x="809" 
d="M287 545q0 -34 42 -76q60 37 60 78q0 19 -14 34t-35 15q-23 0 -38 -15t-15 -36zM313 130q57 0 97 42l-131 132q-62 -46 -62 -93q0 -34 25.5 -57.5t70.5 -23.5zM511 68q-98 -80 -227 -80q-115 0 -179 62.5t-64 141.5q0 127 150 210q-56 67 -56 136t54 121.5t147 52.5
q92 0 141.5 -49t49.5 -112q0 -41 -25.5 -87t-88.5 -82l97 -95l88 138h189l-172 -240l186 -185h-219z" />
    <glyph glyph-name="quotesingle" unicode="'" horiz-adv-x="255" 
d="M200 402h-145v298h145v-298z" />
    <glyph glyph-name="parenleft" unicode="(" horiz-adv-x="330" 
d="M324 -80l-89 -53q-84 75 -143.5 192t-59.5 259t59.5 259.5t144.5 192.5l88 -53q-61 -69 -108 -172.5t-47 -226.5q0 -124 47 -227.5t108 -170.5z" />
    <glyph glyph-name="parenright" unicode=")" horiz-adv-x="330" 
d="M6 -80q61 67 108 170.5t47 227.5q0 123 -47 226.5t-108 172.5l88 53q85 -75 144.5 -192.5t59.5 -259.5t-59.5 -259t-143.5 -192z" />
    <glyph glyph-name="asterisk" unicode="*" horiz-adv-x="540" 
d="M108 314l-63 93l139 75l-139 76l63 92l121 -91l-19 141h119l-17 -141l121 91l62 -92l-139 -76l139 -75l-62 -93l-121 89l17 -141h-119l19 141z" />
    <glyph glyph-name="plus" unicode="+" horiz-adv-x="640" 
d="M77 285v126h175v180h136v-180h175v-126h-175v-180h-136v180h-175z" />
    <glyph glyph-name="comma" unicode="," horiz-adv-x="283" 
d="M127 -138h-72v77h31q32 0 32 32v29h-63v174h173v-218q0 -94 -101 -94z" />
    <glyph glyph-name="hyphen" unicode="-" horiz-adv-x="380" 
d="M53 187v152h274v-152h-274z" />
    <glyph glyph-name="period" unicode="." horiz-adv-x="279" 
d="M53 0v174h173v-174h-173z" />
    <glyph glyph-name="slash" unicode="/" horiz-adv-x="505" 
d="M388 769h93l-365 -839h-92z" />
    <glyph glyph-name="zero" unicode="0" horiz-adv-x="648" 
d="M325 -11q-133 0 -209 98.5t-76 262.5q0 165 76 263t209 98q132 0 207 -98t75 -263q0 -164 -75 -262.5t-207 -98.5zM325 140q49 0 77.5 53t28.5 157q0 103 -28.5 156.5t-77.5 53.5t-78 -53.5t-29 -156.5q0 -104 28.5 -157t78.5 -53z" />
    <glyph glyph-name="one" unicode="1" horiz-adv-x="403" 
d="M324 0h-176v558h-140l33 142h283v-700z" />
    <glyph glyph-name="two" unicode="2" horiz-adv-x="619" 
d="M574 0h-528v135q202 142 275 208.5t73 128.5q0 44 -27 67.5t-62 23.5q-49 0 -73 -29.5t-24 -68.5q0 -26 6 -48h-163q-8 24 -8 62q0 95 70 163t199 68q121 0 188.5 -65.5t67.5 -160.5q0 -47 -19.5 -91t-44 -75t-71 -68t-74.5 -56t-81 -51h296v-143z" />
    <glyph glyph-name="three" unicode="3" horiz-adv-x="627" 
d="M302 292h-53v125h52q46 0 70 22.5t24 56.5q0 29 -23.5 51.5t-63.5 22.5q-47 0 -73.5 -25.5t-28.5 -69.5l-161 19q8 96 78.5 156.5t192.5 60.5q118 0 183.5 -57t65.5 -133q0 -104 -95 -149q59 -21 88.5 -66t29.5 -101q0 -90 -74.5 -153t-202.5 -63q-127 0 -205.5 67.5
t-70.5 168.5l165 18q3 -57 36 -82t76 -25q38 0 68 20t30 60q0 38 -31.5 57t-76.5 19z" />
    <glyph glyph-name="four" unicode="4" horiz-adv-x="636" 
d="M513 0h-166v162h-328v122l298 415h196v-404h90v-133h-90v-162zM347 540l-172 -245h172v245z" />
    <glyph glyph-name="five" unicode="5" horiz-adv-x="616" 
d="M24 176l171 39q7 -38 37.5 -60.5t68.5 -22.5q45 0 75 27t30 71q0 46 -31 72.5t-74 26.5q-54 0 -90 -36l-153 32l39 375h447v-142h-318l-14 -128q55 35 133 35q42 0 82.5 -13.5t76.5 -40t58.5 -73t22.5 -105.5q0 -101 -79 -172.5t-204 -71.5q-114 0 -188 54.5t-90 132.5z
" />
    <glyph glyph-name="six" unicode="6" horiz-adv-x="618" 
d="M320 -12q-127 0 -206 75t-79 180q0 106 61 213.5t193 243.5h199l-222 -252q44 22 98 22q96 0 165.5 -64.5t69.5 -173.5q0 -91 -74.5 -167.5t-204.5 -76.5zM208 233q0 -45 32 -74.5t77 -29.5t77 29.5t32 74.5t-32 75t-77 30t-77 -30t-32 -75z" />
    <glyph glyph-name="seven" unicode="7" horiz-adv-x="557" 
d="M281 0h-191l266 558h-336v142h517v-120z" />
    <glyph glyph-name="eight" unicode="8" horiz-adv-x="650" 
d="M325 -11q-133 0 -210.5 62t-77.5 150q0 65 37 108.5t91 64.5q-42 15 -71.5 53.5t-29.5 92.5q0 72 67.5 131.5t193.5 59.5t193.5 -59.5t67.5 -131.5q0 -54 -29.5 -92.5t-71.5 -53.5q54 -21 91 -64.5t37 -108.5q0 -88 -78 -150t-210 -62zM325 430q43 0 68.5 22t25.5 52
q0 29 -25.5 50t-68.5 21q-42 0 -67.5 -21t-25.5 -50q0 -30 25.5 -52t67.5 -22zM325 126q51 0 81 26.5t30 62.5t-30 62.5t-81 26.5t-81 -26.5t-30 -62.5t30 -62.5t81 -26.5z" />
    <glyph glyph-name="nine" unicode="9" horiz-adv-x="618" 
d="M329 0h-199l222 252q-44 -22 -98 -22q-96 0 -165.5 64.5t-69.5 173.5q0 91 74.5 167.5t204.5 76.5q127 0 206 -75t79 -180q0 -106 -61 -213.5t-193 -243.5zM410 467q0 45 -32 74.5t-77 29.5t-77 -29.5t-32 -74.5t32 -75t77 -30t77 30t32 75z" />
    <glyph glyph-name="colon" unicode=":" horiz-adv-x="279" 
d="M53 305v174h173v-174h-173zM53 0v174h173v-174h-173z" />
    <glyph glyph-name="semicolon" unicode=";" horiz-adv-x="286" 
d="M57 307v179h174v-179h-174zM127 -138h-73v77h32q31 0 31 32v29h-63v174h174v-218q0 -94 -101 -94z" />
    <glyph glyph-name="less" unicode="&#x3c;" horiz-adv-x="640" 
d="M337 90l-226 254v23l228 252h178l-231 -265l231 -264h-180z" />
    <glyph glyph-name="equal" unicode="=" horiz-adv-x="640" 
d="M77 518h486v-124h-486v124zM77 302h486v-125h-486v125z" />
    <glyph glyph-name="greater" unicode="&#x3e;" horiz-adv-x="640" 
d="M303 90h-180l231 264l-231 265h178l228 -252v-23z" />
    <glyph glyph-name="question" unicode="?" horiz-adv-x="501" 
d="M169 252v18q0 40 17 77.5t37.5 61.5t37.5 50.5t17 47.5q0 23 -16 37t-39 14q-47 0 -77 -48l-120 98q81 103 223 103q85 0 146 -49.5t61 -131.5q0 -41 -19.5 -82t-42.5 -67.5t-42.5 -57.5t-19.5 -54v-17h-163zM164 0v174h174v-174h-174z" />
    <glyph glyph-name="at" unicode="@" horiz-adv-x="841" 
d="M443 -157q-74 0 -144.5 24.5t-130 70.5t-96 123.5t-36.5 174.5q0 178 117 288t282 110q157 0 261.5 -91.5t104.5 -231.5q0 -72 -23 -126.5t-54.5 -82.5t-74 -45.5t-71 -21.5t-55.5 -4h-12v44q-39 -44 -100 -44q-79 0 -131 56t-52 144q0 87 52 143t131 56q62 0 98 -41v31
h106v-277q41 20 60 64.5t19 97.5q0 102 -73.5 166.5t-184.5 64.5q-134 0 -212 -88t-78 -212q0 -74 27.5 -132t72.5 -92.5t98.5 -52.5t109.5 -18q52 0 109.5 16.5t95.5 46.5l52 -79q-50 -40 -122.5 -61t-145.5 -21zM429 324q-33 0 -56 -24t-23 -69t23 -69.5t56 -24.5
t56.5 24.5t23.5 69.5t-23.5 69t-56.5 24z" />
    <glyph glyph-name="A" unicode="A" horiz-adv-x="701" 
d="M422 266l-75 233l-76 -233h151zM509 0l-47 140h-232l-47 -140h-182l248 700h202l250 -700h-192z" />
    <glyph glyph-name="B" unicode="B" horiz-adv-x="641" 
d="M70 0v700h288q37 0 74 -10.5t70 -31t53 -56t20 -80.5q1 -50 -24.5 -88t-65.5 -57q52 -18 89 -61.5t37 -108.5q0 -97 -70 -152t-164 -55h-307zM309 566h-64v-148h64q39 0 64 21.5t25 53.5q0 33 -25 53t-64 20zM329 294h-84v-160h84q45 0 73 20.5t28 58.5t-28 59.5
t-73 21.5z" />
    <glyph glyph-name="C" unicode="C" horiz-adv-x="662" 
d="M651 89q-105 -100 -256 -100q-152 0 -257.5 100t-105.5 261t105.5 261t257.5 100q151 0 256 -100l-110 -119q-53 64 -139 64q-78 0 -134 -56t-56 -150t56 -150t134 -56q84 0 139 64z" />
    <glyph glyph-name="D" unicode="D" horiz-adv-x="726" 
d="M693 350q0 -161 -103 -255.5t-251 -94.5h-269v700h269q148 0 251 -94.5t103 -255.5zM507 350q0 57 -18 98.5t-48.5 63.5t-64.5 32t-72 10h-59v-408h59q38 0 72 10t64.5 32t48.5 63.5t18 98.5z" />
    <glyph glyph-name="E" unicode="E" horiz-adv-x="589" 
d="M70 0v700h476v-146h-301v-129h237v-142h-237v-137h310v-146h-485z" />
    <glyph glyph-name="F" unicode="F" horiz-adv-x="552" 
d="M484 268h-239v-268h-175v700h449v-146h-274v-143h239v-143z" />
    <glyph glyph-name="G" unicode="G" horiz-adv-x="764" 
d="M707 0l-108 63q-81 -74 -211 -74q-156 0 -255.5 99t-99.5 262q0 159 105.5 260t256.5 101q109 0 191 -44.5t126 -126.5l-148 -78q-51 95 -163 95q-80 0 -134 -57.5t-54 -152.5q0 -97 55.5 -153.5t138.5 -56.5q99 0 146 63v59h-176v123h340v-382h-10z" />
    <glyph glyph-name="H" unicode="H" horiz-adv-x="763" 
d="M518 0v284h-273v-284h-175v700h175v-268h273v268h175v-700h-175z" />
    <glyph glyph-name="I" unicode="I" horiz-adv-x="315" 
d="M70 700h175v-700h-175v700z" />
    <glyph glyph-name="J" unicode="J" horiz-adv-x="528" 
d="M220 -11q-84 0 -140 33.5t-82 84.5l146 79q8 -22 27.5 -34.5t41.5 -12.5q32 0 53.5 20t21.5 61v480h175v-482q0 -96 -67 -162.5t-176 -66.5z" />
    <glyph glyph-name="K" unicode="K" horiz-adv-x="705" 
d="M511 0l-195 297l-71 -79v-218h-175v700h175v-289l251 289h203l-261 -284l279 -416h-206z" />
    <glyph glyph-name="L" unicode="L" horiz-adv-x="548" 
d="M70 0v700h175v-554h289v-146h-464z" />
    <glyph glyph-name="M" unicode="M" horiz-adv-x="942" 
d="M387 0l-149 475v-475h-168v700h258l141 -453l148 453h255v-700h-175v475l-153 -475h-157z" />
    <glyph glyph-name="N" unicode="N" horiz-adv-x="788" 
d="M528 0l-290 439v-439h-168v700h190l290 -439v439h168v-700h-190z" />
    <glyph glyph-name="O" unicode="O" horiz-adv-x="802" 
d="M401 711q150 0 259.5 -100.5t109.5 -260.5t-109 -260.5t-260 -100.5q-150 0 -259.5 100.5t-109.5 260.5t109.5 260.5t259.5 100.5zM401 556q-77 0 -133 -56t-56 -150t56 -150t133 -56t132 56t55 150t-55 150t-132 56z" />
    <glyph glyph-name="P" unicode="P" horiz-adv-x="627" 
d="M341 235h-96v-235h-175v700h271q108 0 183 -63.5t75 -169.5q0 -107 -75 -169.5t-183 -62.5zM311 558h-66v-182h66q44 0 74 24t30 67q0 44 -29.5 67.5t-74.5 23.5z" />
    <glyph glyph-name="Q" unicode="Q" horiz-adv-x="802" 
d="M401 144q51 0 95 26l-179 184h151l100 -102q20 43 20 98q0 94 -55 150t-132 56t-133 -56t-56 -150t56 -150t133 -56zM662 0l-50 51q-95 -62 -211 -62q-150 0 -259.5 100.5t-109.5 260.5t109.5 260.5t259.5 100.5t259.5 -100.5t109.5 -260.5q0 -130 -77 -225l123 -125
h-154z" />
    <glyph glyph-name="R" unicode="R" horiz-adv-x="676" 
d="M331 560h-86v-171h86q51 0 77 25t26 60t-26 60.5t-77 25.5zM245 267v-267h-175v700h305q103 0 174 -57t71 -162q0 -68 -38 -117.5t-99 -74.5l186 -289h-201l-160 267h-63z" />
    <glyph glyph-name="S" unicode="S" horiz-adv-x="613" 
d="M227 510q0 -23 16.5 -37.5t56.5 -27.5l88 -28q94 -30 144 -76t50 -131q0 -94 -75 -157.5t-199 -63.5q-99 0 -176.5 40t-108.5 111l150 72q15 -35 52.5 -57t80.5 -22q42 0 66 17t24 42q0 11 -3 19.5t-12 16.5t-15 12.5t-23.5 11t-24.5 8.5t-31 10l-74 23q-170 54 -170 206
q0 87 73 149.5t192 62.5q88 0 156.5 -33.5t107.5 -93.5l-137 -84q-18 29 -53 48t-72 19q-39 0 -61 -17t-22 -40z" />
    <glyph glyph-name="T" unicode="T" horiz-adv-x="642" 
d="M628 554h-219v-554h-175v554h-220v146h614v-146z" />
    <glyph glyph-name="U" unicode="U" horiz-adv-x="720" 
d="M359 -11q-134 0 -215 74.5t-81 201.5v435h175v-428q0 -62 36.5 -95t90.5 -33q52 0 88 33t36 95v428h168v-435q0 -127 -81.5 -201.5t-216.5 -74.5z" />
    <glyph glyph-name="V" unicode="V" horiz-adv-x="695" 
d="M448 0h-200l-246 700h194l155 -489l158 489h183z" />
    <glyph glyph-name="W" unicode="W" horiz-adv-x="1051" 
d="M631 0l-108 434l-102 -434h-214l-197 700h192l116 -473l114 473h190l114 -473l116 473h189l-197 -700h-213z" />
    <glyph glyph-name="X" unicode="X" horiz-adv-x="663" 
d="M464 0l-136 232l-132 -232h-201l224 362l-207 338h202l122 -214l113 214h195l-198 -333l226 -367h-208z" />
    <glyph glyph-name="Y" unicode="Y" horiz-adv-x="685" 
d="M430 0h-175v276l-256 424h206l146 -250l137 250h199l-257 -426v-274z" />
    <glyph glyph-name="Z" unicode="Z" horiz-adv-x="657" 
d="M35 0v137l338 417h-329v146h559v-137l-339 -417h364v-146h-593z" />
    <glyph glyph-name="bracketleft" unicode="[" horiz-adv-x="350" 
d="M178 635v-675h152v-89h-262v854h262v-90h-152z" />
    <glyph glyph-name="backslash" unicode="\" horiz-adv-x="505" 
d="M117 769l364 -839h-92l-365 839h93z" />
    <glyph glyph-name="bracketright" unicode="]" horiz-adv-x="350" 
d="M172 635h-152v90h262v-854h-262v89h152v675z" />
    <glyph glyph-name="asciicircum" unicode="^" horiz-adv-x="640" 
d="M220 240h-146l178 460h136l178 -460h-147l-99 295z" />
    <glyph glyph-name="underscore" unicode="_" horiz-adv-x="410" 
d="M0 -50h410v-112h-410v112z" />
    <glyph glyph-name="grave" unicode="`" 
d="M30 640l73 125l238 -148l-55 -88z" />
    <glyph glyph-name="a" unicode="a" horiz-adv-x="610" 
d="M294 368q-42 0 -73 -32.5t-31 -87.5q0 -56 31 -88.5t73 -32.5q44 0 75.5 32.5t31.5 88.5q0 55 -32 87.5t-75 32.5zM398 0v51q-54 -62 -142 -62q-97 0 -163 72.5t-66 186.5q0 113 66 185.5t163 72.5q89 0 142 -63v51h160v-494h-160z" />
    <glyph glyph-name="b" unicode="b" horiz-adv-x="611" 
d="M354 -11q-87 0 -142 62v-51h-160v700h160v-257q55 63 142 63q97 0 163.5 -72.5t66.5 -185.5q0 -114 -66 -186.5t-164 -72.5zM316 368q-44 0 -75 -32.5t-31 -87.5q0 -56 31 -88.5t75 -32.5q42 0 73 32.5t31 88.5q0 55 -31 87.5t-73 32.5z" />
    <glyph glyph-name="c" unicode="c" horiz-adv-x="510" 
d="M27 248q0 112 73.5 185t184.5 73q70 0 124 -30.5t84 -80.5l-121 -79q-28 51 -83 51q-40 0 -69.5 -32t-29.5 -87q0 -56 29.5 -88t69.5 -32q55 0 83 51l121 -79q-30 -50 -84 -80.5t-124 -30.5q-111 0 -184.5 73t-73.5 186z" />
    <glyph glyph-name="d" unicode="d" horiz-adv-x="610" 
d="M294 368q-42 0 -73 -32.5t-31 -87.5q0 -56 31 -88.5t73 -32.5q44 0 75.5 32.5t31.5 88.5q0 55 -32 87.5t-75 32.5zM398 0v51q-54 -62 -142 -62q-97 0 -163 72.5t-66 186.5q0 113 66 185.5t163 72.5q89 0 142 -63v257h160v-700h-160z" />
    <glyph glyph-name="e" unicode="e" horiz-adv-x="564" 
d="M289 -11q-115 0 -188.5 72t-73.5 186q0 112 74 185.5t183 73.5q113 0 185.5 -74.5t72.5 -193.5v-23h-349q8 -44 35 -67.5t65 -23.5q63 0 90 54l148 -40q-27 -72 -91 -110.5t-151 -38.5zM288 384q-33 0 -58 -21t-34 -61h182q-8 38 -32 60t-58 22z" />
    <glyph glyph-name="f" unicode="f" horiz-adv-x="393" 
d="M382 371h-120v-371h-160v371h-85v123h85v58q0 86 50 129.5t127 43.5q43 0 99 -18v-139q-27 21 -64 21q-23 0 -37.5 -14t-14.5 -39v-42h120v-123z" />
    <glyph glyph-name="g" unicode="g" horiz-adv-x="601" 
d="M289 153q43 0 73.5 30t30.5 81t-30.5 80.5t-73.5 29.5q-39 0 -68.5 -30t-29.5 -80q0 -51 29.5 -81t68.5 -30zM291 -205q-101 0 -169 46t-79 126l164 19q5 -24 28.5 -40.5t57.5 -16.5q43 0 69.5 26t26.5 68v52q-50 -53 -131 -53q-99 0 -164.5 67.5t-65.5 174.5t65.5 174.5
t164.5 67.5q80 0 131 -54v42h160v-467q0 -109 -73.5 -170.5t-184.5 -61.5z" />
    <glyph glyph-name="h" unicode="h" horiz-adv-x="569" 
d="M52 0v700h160v-241q50 47 122 47q81 0 134 -49.5t53 -137.5v-319h-160v289q0 29 -17 52t-54 23t-57.5 -24.5t-20.5 -60.5v-279h-160z" />
    <glyph glyph-name="i" unicode="i" horiz-adv-x="264" 
d="M52 700h160v-146h-160v146zM52 494h160v-494h-160v494z" />
    <glyph glyph-name="j" unicode="j" horiz-adv-x="264" 
d="M52 700h160v-146h-160v146zM-147 -81l127 43q2 -12 12.5 -20.5t23.5 -8.5q15 0 25.5 10.5t10.5 32.5v518h160v-510q0 -92 -54.5 -140.5t-130.5 -48.5q-65 0 -114 33.5t-60 90.5z" />
    <glyph glyph-name="k" unicode="k" horiz-adv-x="555" 
d="M373 0l-117 199l-44 -51v-148h-160v700h160v-388l146 182h190l-169 -196l184 -298h-190z" />
    <glyph glyph-name="l" unicode="l" horiz-adv-x="264" 
d="M52 700h160v-700h-160v700z" />
    <glyph glyph-name="m" unicode="m" horiz-adv-x="864" 
d="M655 290q0 29 -17 51t-51 22q-35 0 -54 -23t-19 -59v-281h-160v290q0 29 -17.5 51t-51.5 22t-53.5 -23t-19.5 -59v-281h-160v494h151v-47q50 59 138 59q92 0 140 -71q60 71 152 71q80 0 131.5 -49.5t51.5 -137.5v-319h-161v290z" />
    <glyph glyph-name="n" unicode="n" horiz-adv-x="569" 
d="M52 0v494h151v-47q50 59 135 59q81 0 132 -49.5t51 -137.5v-319h-160v289q0 29 -17 52t-54 23t-57.5 -24.5t-20.5 -60.5v-279h-160z" />
    <glyph glyph-name="o" unicode="o" horiz-adv-x="577" 
d="M288 -11q-111 0 -186.5 73.5t-75.5 185.5t75.5 185t186.5 73q112 0 187.5 -73t75.5 -185t-75.5 -185.5t-187.5 -73.5zM288 127q43 0 72 32t29 89q0 56 -29.5 88t-71.5 32q-41 0 -70.5 -32t-29.5 -88q0 -57 29 -89t71 -32z" />
    <glyph glyph-name="p" unicode="p" horiz-adv-x="611" 
d="M316 368q-44 0 -75 -32.5t-31 -87.5q0 -56 31 -88.5t75 -32.5q42 0 73 32.5t31 88.5q0 55 -31 87.5t-73 32.5zM354 -11q-87 0 -142 62v-241h-160v684h160v-51q55 63 142 63q97 0 163.5 -72.5t66.5 -185.5q0 -114 -66 -186.5t-164 -72.5z" />
    <glyph glyph-name="q" unicode="q" horiz-adv-x="610" 
d="M558 -190h-160v241q-54 -62 -142 -62q-97 0 -163 72.5t-66 186.5q0 113 66 185.5t163 72.5q89 0 142 -63v51h160v-684zM294 368q-42 0 -73 -32.5t-31 -87.5q0 -56 31 -88.5t73 -32.5q44 0 75.5 32.5t31.5 88.5q0 55 -31.5 87.5t-75.5 32.5z" />
    <glyph glyph-name="r" unicode="r" horiz-adv-x="381" 
d="M52 0v494h156v-78q21 47 57.5 68.5t75.5 21.5q16 0 36 -4l-28 -175q-22 9 -47 9q-39 0 -64.5 -26.5t-25.5 -83.5v-226h-160z" />
    <glyph glyph-name="s" unicode="s" horiz-adv-x="490" 
d="M20 108l124 58q12 -25 39 -43t63 -18q27 0 42 10.5t15 24.5q0 26 -49 37l-79 18q-140 31 -140 147q0 70 60 116.5t151 46.5q75 -1 131.5 -29t82.5 -80l-125 -57q-12 22 -35 36t-51 14q-24 0 -39 -9.5t-15 -22.5q0 -28 43 -37l69 -15q78 -17 116.5 -53t38.5 -97
q0 -69 -59.5 -117.5t-156.5 -48.5q-89 0 -147.5 34t-78.5 85z" />
    <glyph glyph-name="t" unicode="t" horiz-adv-x="402" 
d="M259 -11q-77 0 -123.5 38t-46.5 112v232h-72v123h72v206h160v-206h130v-123h-130v-198q0 -20 13 -34.5t39 -14.5q30 0 70 17v-130q-58 -22 -112 -22z" />
    <glyph glyph-name="u" unicode="u" horiz-adv-x="549" 
d="M277 125q33 0 51 20.5t18 53.5v295h156v-301q0 -92 -60 -148t-165 -56q-107 0 -168.5 56t-61.5 148v301h160v-295q0 -33 18 -53.5t52 -20.5z" />
    <glyph glyph-name="v" unicode="v" horiz-adv-x="557" 
d="M180 0l-171 494h177l97 -321l93 321h171l-169 -494h-198z" />
    <glyph glyph-name="w" unicode="w" horiz-adv-x="806" 
d="M154 0l-141 494h171l71 -307l79 307h151l81 -308l69 308h155l-134 -494h-180l-72 283l-71 -283h-179z" />
    <glyph glyph-name="x" unicode="x" horiz-adv-x="542" 
d="M358 0l-91 139l-85 -139h-186l175 261l-157 233h193l72 -116l68 116h175l-149 -232l175 -262h-190z" />
    <glyph glyph-name="y" unicode="y" horiz-adv-x="554" 
d="M156 -205q-59 0 -103.5 29t-59.5 75l118 57q9 -29 39 -29q33 0 45 37l13 36h-18l-183 494h182l97 -317l93 317h169l-200 -556q-26 -71 -76 -107t-116 -36z" />
    <glyph glyph-name="z" unicode="z" horiz-adv-x="503" 
d="M29 0v111l221 260h-208v123h418v-111l-221 -260h236v-123h-446z" />
    <glyph glyph-name="braceleft" unicode="{" horiz-adv-x="340" 
d="M250 -97q-144 0 -144 136v159q0 50 -12.5 72t-54.5 22h-18v96h18q42 0 54.5 22t12.5 72v159q0 136 144 136h56v-97h-18q-28 0 -40.5 -11t-12.5 -37v-151q0 -60 -18.5 -92t-62.5 -49q44 -17 62.5 -49t18.5 -92v-151q0 -26 12.5 -37t40.5 -11h18v-97h-56z" />
    <glyph glyph-name="bar" unicode="|" horiz-adv-x="219" 
d="M152 -137h-85v968h85v-968z" />
    <glyph glyph-name="braceright" unicode="}" horiz-adv-x="340" 
d="M90 -97h-56v97h18q28 0 40.5 11t12.5 37v151q0 60 18.5 92t62.5 49q-44 17 -62.5 49t-18.5 92v151q0 26 -12.5 37t-40.5 11h-18v97h56q144 0 144 -136v-159q0 -49 12.5 -71.5t54.5 -22.5h18v-96h-18q-42 0 -54.5 -22.5t-12.5 -71.5v-159q0 -136 -144 -136z" />
    <glyph glyph-name="asciitilde" unicode="~" horiz-adv-x="640" 
d="M441 241q-44 0 -135.5 34.5t-115.5 34.5q-53 0 -69 -63l-65 46q-2 32 11 65t48 59.5t85 26.5q44 0 135.5 -34.5t115.5 -34.5q53 0 69 64l65 -47q2 -32 -11 -65t-48 -59.5t-85 -26.5z" />
    <glyph glyph-name="exclamdown" unicode="&#xa1;" horiz-adv-x="306" 
d="M66 521v179h174v-179h-174zM63 0l8 448h163l9 -448h-180z" />
    <glyph glyph-name="cent" unicode="&#xa2;" horiz-adv-x="535" 
d="M196 248q0 -61 35 -94l56 213q-38 -4 -64.5 -35.5t-26.5 -83.5zM291 -11q-21 0 -40 3l-23 -88h-62l27 103q-73 27 -116.5 91.5t-43.5 149.5q0 112 73.5 185t184.5 73q11 0 31 -2l22 83h62l-25 -96q78 -28 118 -96l-121 -79q-12 23 -33 36l-59 -224h9q55 0 83 51l121 -79
q-30 -50 -84 -80.5t-124 -30.5z" />
    <glyph glyph-name="sterling" unicode="&#xa3;" horiz-adv-x="652" 
d="M619 213q-3 -227 -209 -227q-81 0 -183 50q-50 -43 -134 -49l-60 109q55 12 81.5 37.5t26.5 80.5q0 35 -5 77h-94v88h83q-8 51 -8 99q0 104 70 168.5t181 64.5q86 0 149.5 -40t82.5 -107l-155 -66q-5 23 -24 40.5t-46 17.5q-34 0 -54 -24.5t-20 -66.5v-86h156v-88h-155
v-17q0 -66 -9 -110q65 -24 103 -24q67 0 68 73h155z" />
    <glyph glyph-name="currency" unicode="&#xa4;" horiz-adv-x="694" 
d="M654 22l-129 129q-77 -72 -178 -72q-104 0 -178 72l-129 -129l-7 7l129 129q-72 74 -72 179q0 103 71 177l-128 128l7 7l128 -128q75 73 179 73q103 0 178 -73l129 129l7 -7l-129 -129q72 -74 72 -177q0 -102 -72 -179l129 -129zM347 584q-99 0 -172 -70l172 -171
l171 171q-73 70 -171 70zM594 337q0 99 -69 170l-171 -171l170 -171q70 73 70 172zM100 337q0 -100 69 -172l171 171l-172 171q-68 -73 -68 -170zM347 89q99 0 170 69l-170 171l-171 -171q72 -69 171 -69z" />
    <glyph glyph-name="yen" unicode="&#xa5;" horiz-adv-x="738" 
d="M610 94h-154v-94h-175v94h-153v92h153v59h-153v92h116l-219 363h206l146 -250l137 250h199l-219 -363h116v-92h-154v-59h154v-92z" />
    <glyph glyph-name="brokenbar" unicode="&#xa6;" horiz-adv-x="219" 
d="M152 427h-85v404h85v-404zM67 302h85v-439h-85v439z" />
    <glyph glyph-name="section" unicode="&#xa7;" horiz-adv-x="660" 
d="M315 249q75 -30 134 -60q23 30 23 53q0 38 -27.5 57t-90.5 42q-11 4 -17 6q-52 21 -126 57q-23 -28 -23 -53q0 -37 27.5 -56.5t87.5 -41.5q8 -2 12 -4zM317 -158q-91 0 -157.5 46.5t-71.5 126.5l139 38q1 -41 26.5 -66.5t61.5 -25.5q33 0 50.5 17.5t17.5 42.5
q0 16 -8 28.5t-25 22.5t-30.5 15.5t-37.5 14.5q-45 15 -72.5 25.5t-66 30.5t-60 40.5t-37.5 52.5t-16 70q0 54 28 97.5t75 65.5q-15 34 -15 71q0 85 62.5 141t161.5 56q92 0 158.5 -46.5t71.5 -127.5l-140 -38q-1 41 -25 67t-60 26q-33 0 -51.5 -18t-18.5 -43
q0 -29 26 -46.5t74 -33.5q45 -15 73 -25.5t66.5 -30.5t60 -40.5t37.5 -52.5t16 -70q0 -55 -28 -98t-75 -66q15 -33 15 -70q0 -85 -63 -141t-162 -56z" />
    <glyph glyph-name="dieresis" unicode="&#xa8;" horiz-adv-x="471" 
d="M257 555v148h158v-148h-158zM56 555v148h158v-148h-158z" />
    <glyph glyph-name="copyright" unicode="&#xa9;" horiz-adv-x="881" 
d="M846 349q0 -175 -119.5 -287t-285.5 -112t-286 112t-120 287t120 288t286 113t285.5 -113t119.5 -288zM107 349q0 -146 95 -240.5t239 -94.5q143 0 238.5 94.5t95.5 240.5q0 145 -95.5 240.5t-238.5 95.5q-144 0 -239 -95.5t-95 -240.5zM451 99q-106 0 -178 71.5
t-72 180.5t72 180.5t178 71.5t176 -68l-85 -94q-34 41 -88 41q-47 0 -82 -35t-35 -96q0 -62 34 -96.5t83 -34.5q54 0 88 41l85 -94q-70 -68 -176 -68z" />
    <glyph glyph-name="ordfeminine" unicode="&#xaa;" horiz-adv-x="636" 
d="M306 574q-42 0 -73 -32.5t-31 -87.5q0 -56 31 -88.5t73 -32.5q44 0 75.5 32.5t31.5 88.5q0 55 -32 87.5t-75 32.5zM410 206v51q-54 -62 -142 -62q-98 0 -164 72.5t-66 186.5q0 113 66.5 185.5t163.5 72.5q89 0 142 -63v51h160v-494h-160z" />
    <glyph glyph-name="guillemotleft" unicode="&#xab;" horiz-adv-x="597" 
d="M471 48l-218 253v2l218 252l87 -70l-95 -182v-2l95 -182zM238 48l-217 233v42l217 232l87 -70l-116 -182v-2l116 -182z" />
    <glyph glyph-name="logicalnot" unicode="&#xac;" horiz-adv-x="640" 
d="M557 122h-133v163h-353v126h486v-289z" />
    <glyph glyph-name="registered" unicode="&#xae;" horiz-adv-x="532" 
d="M266 292q-97 0 -164.5 64t-67.5 165t67.5 165t164.5 64q96 0 164 -64.5t68 -164.5t-68 -164.5t-164 -64.5zM266 717q-85 0 -140 -55.5t-55 -140.5t55 -140.5t140 -55.5t140 55.5t55 140.5t-55 140.5t-140 55.5zM254 629h-38v-95h38q30 0 44.5 13.5t14.5 33.5
q0 21 -14.5 34.5t-44.5 13.5zM216 388h-39v272h84q38 0 65 -20t27 -59q0 -25 -15 -44t-39 -27l82 -122h-49l-72 115h-44v-115z" />
    <glyph glyph-name="macron" unicode="&#xaf;" horiz-adv-x="402" 
d="M35 568v111h333v-111h-333z" />
    <glyph glyph-name="degree" unicode="&#xb0;" horiz-adv-x="418" 
d="M29 535q0 73 50 124t130 51t130 -51t50 -124q0 -72 -50 -123t-130 -51t-130 51t-50 123zM287 535q0 42 -21.5 68t-56.5 26t-56.5 -26t-21.5 -68t21 -67t57 -25t57 25t21 67z" />
    <glyph glyph-name="plusminus" unicode="&#xb1;" horiz-adv-x="640" 
d="M77 304v125h176v180h135v-180h175v-125h-175v-169h-135v169h-176zM563 0h-486v125h486v-125z" />
    <glyph glyph-name="twosuperior" unicode="&#xb2;" 
d="M352 430h-317v79q121 84 165 124.5t44 76.5q0 28 -16.5 42.5t-37.5 14.5q-29 0 -42.5 -18t-13.5 -42q0 -18 3 -27h-98q-5 20 -5 38q0 57 42 98t119 41q72 0 113.5 -41t41.5 -98q0 -106 -171 -202h173v-86z" />
    <glyph glyph-name="threesuperior" unicode="&#xb3;" horiz-adv-x="389" 
d="M194 423q-77 0 -124 40.5t-43 101.5l100 12q1 -35 21 -50t46 -15q23 0 41 12t18 36q0 23 -18.5 35t-45.5 12h-32v73h32q27 0 41 14t14 34q0 17 -14.5 30.5t-38.5 13.5q-27 0 -43.5 -15.5t-17.5 -40.5l-97 11q5 57 47.5 93t116.5 36q70 1 109.5 -34t39.5 -80
q0 -62 -57 -89q35 -11 52.5 -38.5t17.5 -61.5q0 -54 -44.5 -92t-120.5 -38z" />
    <glyph glyph-name="acute" unicode="&#xb4;" 
d="M353 640l-257 -111l-54 88l238 148z" />
    <glyph glyph-name="paragraph" unicode="&#xb6;" horiz-adv-x="702" 
d="M399 600v-766h-118v361q-63 1 -113 24t-79.5 60t-45 81t-15.5 91q0 107 77.5 178t178.5 71h336v-866h-118v766h-103z" />
    <glyph glyph-name="periodcentered" unicode="&#xb7;" horiz-adv-x="283" 
d="M53 271v174h177v-174h-177z" />
    <glyph glyph-name="cedilla" unicode="&#xb8;" horiz-adv-x="402" 
d="M215 -142h-140l116 222l128 -63z" />
    <glyph glyph-name="onesuperior" unicode="&#xb9;" 
d="M339 430h-272v85h83v250h-89l18 85h176v-335h84v-85z" />
    <glyph glyph-name="ordmasculine" unicode="&#xba;" horiz-adv-x="600" 
d="M300 195q-112 0 -187.5 73.5t-75.5 185.5t75.5 185t187.5 73q111 0 187 -73.5t76 -184.5q0 -112 -76 -185.5t-187 -73.5zM300 333q42 0 71 32t29 89q0 56 -29.5 88t-70.5 32q-42 0 -71.5 -32t-29.5 -88q0 -57 29 -89t72 -32z" />
    <glyph glyph-name="guillemotright" unicode="&#xbb;" horiz-adv-x="598" 
d="M127 48l-88 71l95 182v2l-95 182l88 70l218 -252v-2zM360 48l-88 71l116 182v2l-116 182l88 70l217 -232v-42z" />
    <glyph glyph-name="onequarter" unicode="&#xbc;" horiz-adv-x="1000" 
d="M370 280h-272v85h83v250h-89l18 85h176v-335h84v-85zM307 0h-76l506 700h76zM752 0v97h-208v73l189 250h119v-242h64v-81h-64v-97h-100zM752 178v151l-113 -151h113z" />
    <glyph glyph-name="onehalf" unicode="&#xbd;" horiz-adv-x="1000" 
d="M348 280h-272v85h83v250h-89l18 85h176v-335h84v-85zM285 0h-76l506 700h76zM931 0h-317v79q121 84 165 124.5t44 76.5q0 28 -16.5 42.5t-37.5 14.5q-29 0 -42.5 -18t-13.5 -42q0 -18 3 -27h-98q-5 20 -5 38q0 57 42 98t119 41q72 0 113.5 -41t41.5 -98q0 -106 -171 -202
h173v-86z" />
    <glyph glyph-name="threequarters" unicode="&#xbe;" horiz-adv-x="1001" 
d="M299 0h-76l506 700h76zM264 273q-77 0 -124 40.5t-43 101.5l100 12q1 -35 21 -50t46 -15q23 0 41 12t18 36q0 23 -18.5 35t-45.5 12h-32v73h32q27 0 41 14t14 34q0 17 -14.5 30.5t-38.5 13.5q-27 0 -43.5 -15.5t-17.5 -40.5l-97 11q5 57 47.5 93t116.5 36q70 1 109.5 -34
t39.5 -80q0 -62 -57 -89q35 -11 52.5 -38.5t17.5 -61.5q0 -54 -44.5 -92t-120.5 -38zM744 0v97h-208v73l189 250h119v-242h64v-81h-64v-97h-100zM744 178v151l-113 -151h113z" />
    <glyph glyph-name="questiondown" unicode="&#xbf;" horiz-adv-x="501" 
d="M337 700v-174h-174v174h174zM332 448v-18q0 -40 -17 -77.5t-37.5 -61.5t-37.5 -50.5t-17 -47.5q0 -23 16 -37t39 -14q47 0 77 48l120 -98q-81 -103 -223 -103q-85 0 -146 49.5t-61 131.5q0 41 19.5 82t42.5 67.5t42.5 57.5t19.5 54v17h163z" />
    <glyph glyph-name="Agrave" unicode="&#xc0;" horiz-adv-x="701" 
d="M187 846l73 125l238 -148l-55 -88zM422 266l-75 233l-76 -233h151zM509 0l-47 140h-232l-47 -140h-182l248 700h202l250 -700h-192z" />
    <glyph glyph-name="Aacute" unicode="&#xc1;" horiz-adv-x="701" 
d="M510 846l-257 -111l-54 88l238 148zM422 266l-75 233l-76 -233h151zM509 0l-47 140h-232l-47 -140h-182l248 700h202l250 -700h-192z" />
    <glyph glyph-name="Acircumflex" unicode="&#xc2;" horiz-adv-x="701" 
d="M399 764l-52 63l-52 -63h-132l111 179h147l111 -179h-133zM422 266l-75 233l-76 -233h151zM509 0l-47 140h-232l-47 -140h-182l248 700h202l250 -700h-192z" />
    <glyph glyph-name="Atilde" unicode="&#xc3;" horiz-adv-x="701" 
d="M284 803q-26 0 -29 -29h-87q0 73 28 111.5t80 38.5q24 0 77 -16.5t64 -16.5q26 0 30 29h86q0 -73 -28 -111.5t-80 -38.5q-24 0 -76.5 16.5t-64.5 16.5zM422 266l-75 233l-76 -233h151zM509 0l-47 140h-232l-47 -140h-182l248 700h202l250 -700h-192z" />
    <glyph glyph-name="Adieresis" unicode="&#xc4;" horiz-adv-x="701" 
d="M372 761v148h158v-148h-158zM171 761v148h158v-148h-158zM422 266l-75 233l-76 -233h151zM509 0l-47 140h-232l-47 -140h-182l248 700h202l250 -700h-192z" />
    <glyph glyph-name="Aring" unicode="&#xc5;" horiz-adv-x="701" 
d="M201 872q0 60 43.5 102t106.5 42t106 -42t43 -102t-43 -102t-106 -42t-106.5 42t-43.5 102zM293 872q0 -25 16.5 -42t41.5 -17t41 17t16 42q0 26 -16 42.5t-41 16.5t-41.5 -16.5t-16.5 -42.5zM422 266l-75 233l-76 -233h151zM509 0l-47 140h-232l-47 -140h-182l248 700
h202l250 -700h-192z" />
    <glyph glyph-name="AE" unicode="&#xc6;" horiz-adv-x="979" 
d="M460 266v299l-148 -299h148zM460 0v140h-211l-69 -140h-189l361 700h584v-146h-301v-129h237v-142h-237v-137h310v-146h-485z" />
    <glyph glyph-name="Ccedilla" unicode="&#xc7;" horiz-adv-x="662" 
d="M651 89q-92 -87 -221 -98l-87 -133h-140l77 148q-110 33 -179 124.5t-69 219.5q0 161 105.5 261t257.5 100q151 0 256 -100l-110 -119q-53 64 -139 64q-78 0 -134 -56t-56 -150t56 -150t134 -56q84 0 139 64z" />
    <glyph glyph-name="Egrave" unicode="&#xc8;" horiz-adv-x="589" 
d="M144 846l73 125l238 -148l-55 -88zM70 0v700h476v-146h-301v-129h237v-142h-237v-137h310v-146h-485z" />
    <glyph glyph-name="Eacute" unicode="&#xc9;" horiz-adv-x="589" 
d="M467 846l-257 -111l-54 88l238 148zM70 0v700h476v-146h-301v-129h237v-142h-237v-137h310v-146h-485z" />
    <glyph glyph-name="Ecircumflex" unicode="&#xca;" horiz-adv-x="589" 
d="M356 764l-52 63l-52 -63h-132l111 179h147l111 -179h-133zM70 0v700h476v-146h-301v-129h237v-142h-237v-137h310v-146h-485z" />
    <glyph glyph-name="Edieresis" unicode="&#xcb;" horiz-adv-x="589" 
d="M329 761v148h158v-148h-158zM128 761v148h158v-148h-158zM70 0v700h476v-146h-301v-129h237v-142h-237v-137h310v-146h-485z" />
    <glyph glyph-name="Igrave" unicode="&#xcc;" horiz-adv-x="315" 
d="M-7 846l73 125l238 -148l-55 -88zM70 700h175v-700h-175v700z" />
    <glyph glyph-name="Iacute" unicode="&#xcd;" horiz-adv-x="315" 
d="M316 846l-257 -111l-54 88l238 148zM70 700h175v-700h-175v700z" />
    <glyph glyph-name="Icircumflex" unicode="&#xce;" horiz-adv-x="315" 
d="M205 764l-52 63l-52 -63h-132l111 179h147l111 -179h-133zM70 700h175v-700h-175v700z" />
    <glyph glyph-name="Idieresis" unicode="&#xcf;" horiz-adv-x="315" 
d="M178 761v148h158v-148h-158zM-23 761v148h158v-148h-158zM70 700h175v-700h-175v700z" />
    <glyph glyph-name="Eth" unicode="&#xd0;" horiz-adv-x="736" 
d="M349 0h-269v285h-69v126h69v289h269q148 0 251 -94.5t103 -255.5t-103 -255.5t-251 -94.5zM255 146h59q38 0 72 10t64.5 32t48.5 63.5t18 98.5t-18 98.5t-48.5 63.5t-64.5 32t-72 10h-59v-143h143v-126h-143v-139z" />
    <glyph glyph-name="Ntilde" unicode="&#xd1;" horiz-adv-x="788" 
d="M327 803q-26 0 -29 -29h-87q0 73 28 111.5t80 38.5q24 0 77 -16.5t64 -16.5q26 0 30 29h86q0 -73 -28 -111.5t-80 -38.5q-24 0 -76.5 16.5t-64.5 16.5zM528 0l-290 439v-439h-168v700h190l290 -439v439h168v-700h-190z" />
    <glyph glyph-name="Ograve" unicode="&#xd2;" horiz-adv-x="802" 
d="M237 846l73 125l238 -148l-55 -88zM401 711q150 0 259.5 -100.5t109.5 -260.5t-109 -260.5t-260 -100.5q-150 0 -259.5 100.5t-109.5 260.5t109.5 260.5t259.5 100.5zM401 556q-77 0 -133 -56t-56 -150t56 -150t133 -56t132 56t55 150t-55 150t-132 56z" />
    <glyph glyph-name="Oacute" unicode="&#xd3;" horiz-adv-x="802" 
d="M560 846l-257 -111l-54 88l238 148zM401 711q150 0 259.5 -100.5t109.5 -260.5t-109 -260.5t-260 -100.5q-150 0 -259.5 100.5t-109.5 260.5t109.5 260.5t259.5 100.5zM401 556q-77 0 -133 -56t-56 -150t56 -150t133 -56t132 56t55 150t-55 150t-132 56z" />
    <glyph glyph-name="Ocircumflex" unicode="&#xd4;" horiz-adv-x="802" 
d="M449 764l-52 63l-52 -63h-132l111 179h147l111 -179h-133zM401 711q150 0 259.5 -100.5t109.5 -260.5t-109 -260.5t-260 -100.5q-150 0 -259.5 100.5t-109.5 260.5t109.5 260.5t259.5 100.5zM401 556q-77 0 -133 -56t-56 -150t56 -150t133 -56t132 56t55 150t-55 150
t-132 56z" />
    <glyph glyph-name="Otilde" unicode="&#xd5;" horiz-adv-x="802" 
d="M334 803q-26 0 -29 -29h-87q0 73 28 111.5t80 38.5q24 0 77 -16.5t64 -16.5q26 0 30 29h86q0 -73 -28 -111.5t-80 -38.5q-24 0 -76.5 16.5t-64.5 16.5zM401 711q150 0 259.5 -100.5t109.5 -260.5t-109 -260.5t-260 -100.5q-150 0 -259.5 100.5t-109.5 260.5t109.5 260.5
t259.5 100.5zM401 556q-77 0 -133 -56t-56 -150t56 -150t133 -56t132 56t55 150t-55 150t-132 56z" />
    <glyph glyph-name="Odieresis" unicode="&#xd6;" horiz-adv-x="802" 
d="M422 761v148h158v-148h-158zM221 761v148h158v-148h-158zM401 711q150 0 259.5 -100.5t109.5 -260.5t-109 -260.5t-260 -100.5q-150 0 -259.5 100.5t-109.5 260.5t109.5 260.5t259.5 100.5zM401 556q-77 0 -133 -56t-56 -150t56 -150t133 -56t132 56t55 150t-55 150
t-132 56z" />
    <glyph glyph-name="multiply" unicode="&#xd7;" horiz-adv-x="640" 
d="M454 126l-134 134l-134 -134l-89 88l135 134l-135 134l89 89l134 -134l134 134l88 -89l-133 -134l133 -134z" />
    <glyph glyph-name="Oslash" unicode="&#xd8;" horiz-adv-x="802" 
d="M401 711q150 0 259.5 -100.5t109.5 -260.5t-109 -260.5t-260 -100.5q-150 0 -259.5 100.5t-109.5 260.5t109.5 260.5t259.5 100.5zM212 350q0 -54 20 -96l275 268q-48 34 -106 34q-77 0 -133 -56t-56 -150zM401 144q77 0 132 56t55 150q0 47 -16 87l-270 -265
q47 -28 99 -28z" />
    <glyph glyph-name="Ugrave" unicode="&#xd9;" horiz-adv-x="720" 
d="M198 846l73 125l238 -148l-55 -88zM359 -11q-134 0 -215 74.5t-81 201.5v435h175v-428q0 -62 36.5 -95t90.5 -33q52 0 88 33t36 95v428h168v-435q0 -127 -81.5 -201.5t-216.5 -74.5z" />
    <glyph glyph-name="Uacute" unicode="&#xda;" horiz-adv-x="720" 
d="M521 846l-257 -111l-54 88l238 148zM359 -11q-134 0 -215 74.5t-81 201.5v435h175v-428q0 -62 36.5 -95t90.5 -33q52 0 88 33t36 95v428h168v-435q0 -127 -81.5 -201.5t-216.5 -74.5z" />
    <glyph glyph-name="Ucircumflex" unicode="&#xdb;" horiz-adv-x="720" 
d="M410 764l-52 63l-52 -63h-132l111 179h147l111 -179h-133zM359 -11q-134 0 -215 74.5t-81 201.5v435h175v-428q0 -62 36.5 -95t90.5 -33q52 0 88 33t36 95v428h168v-435q0 -127 -81.5 -201.5t-216.5 -74.5z" />
    <glyph glyph-name="Udieresis" unicode="&#xdc;" horiz-adv-x="720" 
d="M383 761v148h158v-148h-158zM182 761v148h158v-148h-158zM359 -11q-134 0 -215 74.5t-81 201.5v435h175v-428q0 -62 36.5 -95t90.5 -33q52 0 88 33t36 95v428h168v-435q0 -127 -81.5 -201.5t-216.5 -74.5z" />
    <glyph glyph-name="Yacute" unicode="&#xdd;" horiz-adv-x="685" 
d="M502 846l-257 -111l-54 88l238 148zM430 0h-175v276l-256 424h206l146 -250l137 250h199l-257 -426v-274z" />
    <glyph glyph-name="Thorn" unicode="&#xde;" horiz-adv-x="726" 
d="M339 0h-93v-110h-176v920h176v-110h93q148 0 251 -94.5t103 -255.5t-103 -255.5t-251 -94.5zM507 350q0 57 -18 98.5t-48.5 63.5t-64.5 32t-72 10h-58v-408h58q38 0 72 10t64.5 32t48.5 63.5t18 98.5z" />
    <glyph glyph-name="germandbls" unicode="&#xdf;" horiz-adv-x="593" 
d="M52 486q0 103 63.5 172t173.5 69q98 0 156 -52.5t58 -123.5q0 -42 -30 -104l-11 -24q-17 -40 -17 -47q0 -17 28 -45l23 -21q73 -73 73 -147q0 -78 -55.5 -124.5t-134.5 -46.5q-81 0 -143 38l56 115q29 -22 60 -22q20 0 34.5 11.5t14.5 29.5q0 14 -8 25t-31 34l-25 23
q-57 55 -57 99q0 26 23 74l24 49q19 42 19 60q0 25 -17 42.5t-45 17.5q-31 0 -51.5 -23t-20.5 -61v-502h-160v484z" />
    <glyph glyph-name="agrave" unicode="&#xe0;" horiz-adv-x="610" 
d="M140 640l73 125l238 -148l-55 -88zM294 368q-42 0 -73 -32.5t-31 -87.5q0 -56 31 -88.5t73 -32.5q44 0 75.5 32.5t31.5 88.5q0 55 -32 87.5t-75 32.5zM398 0v51q-54 -62 -142 -62q-97 0 -163 72.5t-66 186.5q0 113 66 185.5t163 72.5q89 0 142 -63v51h160v-494h-160z" />
    <glyph glyph-name="aacute" unicode="&#xe1;" horiz-adv-x="610" 
d="M463 640l-257 -111l-54 88l238 148zM294 368q-42 0 -73 -32.5t-31 -87.5q0 -56 31 -88.5t73 -32.5q44 0 75.5 32.5t31.5 88.5q0 55 -32 87.5t-75 32.5zM398 0v51q-54 -62 -142 -62q-97 0 -163 72.5t-66 186.5q0 113 66 185.5t163 72.5q89 0 142 -63v51h160v-494h-160z
" />
    <glyph glyph-name="acircumflex" unicode="&#xe2;" horiz-adv-x="610" 
d="M353 558l-52 63l-52 -63h-132l111 179h147l111 -179h-133zM294 368q-42 0 -73 -32.5t-31 -87.5q0 -56 31 -88.5t73 -32.5q44 0 75.5 32.5t31.5 88.5q0 55 -32 87.5t-75 32.5zM398 0v51q-54 -62 -142 -62q-97 0 -163 72.5t-66 186.5q0 113 66 185.5t163 72.5q89 0 142 -63
v51h160v-494h-160z" />
    <glyph glyph-name="atilde" unicode="&#xe3;" horiz-adv-x="610" 
d="M238 597q-26 0 -29 -29h-87q0 73 28 111.5t80 38.5q24 0 77 -16.5t64 -16.5q26 0 30 29h86q0 -73 -28 -111.5t-80 -38.5q-24 0 -76.5 16.5t-64.5 16.5zM294 368q-42 0 -73 -32.5t-31 -87.5q0 -56 31 -88.5t73 -32.5q44 0 75.5 32.5t31.5 88.5q0 55 -32 87.5t-75 32.5z
M398 0v51q-54 -62 -142 -62q-97 0 -163 72.5t-66 186.5q0 113 66 185.5t163 72.5q89 0 142 -63v51h160v-494h-160z" />
    <glyph glyph-name="adieresis" unicode="&#xe4;" horiz-adv-x="610" 
d="M326 555v148h158v-148h-158zM125 555v148h158v-148h-158zM294 368q-42 0 -73 -32.5t-31 -87.5q0 -56 31 -88.5t73 -32.5q44 0 75.5 32.5t31.5 88.5q0 55 -32 87.5t-75 32.5zM398 0v51q-54 -62 -142 -62q-97 0 -163 72.5t-66 186.5q0 113 66 185.5t163 72.5q89 0 142 -63
v51h160v-494h-160z" />
    <glyph glyph-name="aring" unicode="&#xe5;" horiz-adv-x="610" 
d="M155 666q0 60 43.5 102t106.5 42t106 -42t43 -102t-43 -102t-106 -42t-106.5 42t-43.5 102zM247 666q0 -25 16.5 -42t41.5 -17t41 17t16 42q0 26 -16 42.5t-41 16.5t-41.5 -16.5t-16.5 -42.5zM294 368q-42 0 -73 -32.5t-31 -87.5q0 -56 31 -88.5t73 -32.5q44 0 75.5 32.5
t31.5 88.5q0 55 -32 87.5t-75 32.5zM398 0v51q-54 -62 -142 -62q-97 0 -163 72.5t-66 186.5q0 113 66 185.5t163 72.5q89 0 142 -63v51h160v-494h-160z" />
    <glyph glyph-name="ae" unicode="&#xe6;" horiz-adv-x="944" 
d="M668 -11q-77 0 -137 34v-23h-133v51q-54 -62 -142 -62q-97 0 -163 72.5t-66 186.5q0 113 66 185.5t163 72.5q89 0 142 -63v51h133v-23q62 35 132 35q113 0 185.5 -74.5t72.5 -193.5v-23h-348q7 -44 34.5 -67.5t65.5 -23.5q62 0 89 54l148 -40q-27 -72 -91 -110.5
t-151 -38.5zM667 384q-33 0 -58 -21t-34 -61h182q-8 38 -32 60t-58 22zM294 368q-42 0 -73 -32.5t-31 -87.5q0 -56 31 -88.5t73 -32.5q44 0 75.5 32.5t31.5 88.5q0 55 -32 87.5t-75 32.5z" />
    <glyph glyph-name="ccedilla" unicode="&#xe7;" horiz-adv-x="510" 
d="M493 100q-48 -80 -145 -104l-90 -138h-140l76 146q-75 26 -121 91.5t-46 152.5q0 112 73.5 185t184.5 73q70 0 124 -30.5t84 -80.5l-121 -79q-28 51 -83 51q-40 0 -69.5 -32t-29.5 -87q0 -56 29.5 -88t69.5 -32q55 0 83 51z" />
    <glyph glyph-name="egrave" unicode="&#xe8;" horiz-adv-x="564" 
d="M119 640l73 125l238 -148l-55 -88zM289 -11q-115 0 -188.5 72t-73.5 186q0 112 74 185.5t183 73.5q113 0 185.5 -74.5t72.5 -193.5v-23h-349q8 -44 35 -67.5t65 -23.5q63 0 90 54l148 -40q-27 -72 -91 -110.5t-151 -38.5zM288 384q-33 0 -58 -21t-34 -61h182
q-8 38 -32 60t-58 22z" />
    <glyph glyph-name="eacute" unicode="&#xe9;" horiz-adv-x="564" 
d="M442 640l-257 -111l-54 88l238 148zM289 -11q-115 0 -188.5 72t-73.5 186q0 112 74 185.5t183 73.5q113 0 185.5 -74.5t72.5 -193.5v-23h-349q8 -44 35 -67.5t65 -23.5q63 0 90 54l148 -40q-27 -72 -91 -110.5t-151 -38.5zM288 384q-33 0 -58 -21t-34 -61h182
q-8 38 -32 60t-58 22z" />
    <glyph glyph-name="ecircumflex" unicode="&#xea;" horiz-adv-x="564" 
d="M331 558l-52 63l-52 -63h-132l111 179h147l111 -179h-133zM289 -11q-115 0 -188.5 72t-73.5 186q0 112 74 185.5t183 73.5q113 0 185.5 -74.5t72.5 -193.5v-23h-349q8 -44 35 -67.5t65 -23.5q63 0 90 54l148 -40q-27 -72 -91 -110.5t-151 -38.5zM288 384q-33 0 -58 -21
t-34 -61h182q-8 38 -32 60t-58 22z" />
    <glyph glyph-name="edieresis" unicode="&#xeb;" horiz-adv-x="564" 
d="M304 555v148h158v-148h-158zM103 555v148h158v-148h-158zM289 -11q-115 0 -188.5 72t-73.5 186q0 112 74 185.5t183 73.5q113 0 185.5 -74.5t72.5 -193.5v-23h-349q8 -44 35 -67.5t65 -23.5q63 0 90 54l148 -40q-27 -72 -91 -110.5t-151 -38.5zM288 384q-33 0 -58 -21
t-34 -61h182q-8 38 -32 60t-58 22z" />
    <glyph glyph-name="igrave" unicode="&#xec;" horiz-adv-x="266" 
d="M-31 640l73 125l238 -148l-55 -88zM53 494h160v-494h-160v494z" />
    <glyph glyph-name="iacute" unicode="&#xed;" horiz-adv-x="266" 
d="M292 640l-257 -111l-54 88l238 148zM53 494h160v-494h-160v494z" />
    <glyph glyph-name="icircumflex" unicode="&#xee;" horiz-adv-x="266" 
d="M182 558l-52 63l-52 -63h-132l111 179h147l111 -179h-133zM53 494h160v-494h-160v494z" />
    <glyph glyph-name="idieresis" unicode="&#xef;" horiz-adv-x="266" 
d="M155 555v148h158v-148h-158zM-46 555v148h158v-148h-158zM53 494h160v-494h-160v494z" />
    <glyph glyph-name="eth" unicode="&#xf0;" horiz-adv-x="611" 
d="M294 368q-42 0 -73 -32.5t-31 -87.5q0 -56 31 -88.5t73 -32.5q44 0 75.5 32.5t31.5 88.5q0 55 -32 87.5t-75 32.5zM398 51q-54 -62 -142 -62q-97 0 -163 72.5t-66 186.5q0 113 66 185.5t163 72.5q89 0 142 -63v104h-118v81h118v72h160v-72h42v-81h-42v-547h-160v51z" />
    <glyph glyph-name="ntilde" unicode="&#xf1;" horiz-adv-x="569" 
d="M218 597q-26 0 -29 -29h-87q0 73 28 111.5t80 38.5q24 0 77 -16.5t64 -16.5q26 0 30 29h86q0 -73 -28 -111.5t-80 -38.5q-24 0 -76.5 16.5t-64.5 16.5zM52 0v494h151v-47q50 59 135 59q81 0 132 -49.5t51 -137.5v-319h-160v289q0 29 -17 52t-54 23t-57.5 -24.5
t-20.5 -60.5v-279h-160z" />
    <glyph glyph-name="ograve" unicode="&#xf2;" horiz-adv-x="577" 
d="M124 640l73 125l238 -148l-55 -88zM288 -11q-111 0 -186.5 73.5t-75.5 185.5t75.5 185t186.5 73q112 0 187.5 -73t75.5 -185t-75.5 -185.5t-187.5 -73.5zM288 127q43 0 72 32t29 89q0 56 -29.5 88t-71.5 32q-41 0 -70.5 -32t-29.5 -88q0 -57 29 -89t71 -32z" />
    <glyph glyph-name="oacute" unicode="&#xf3;" horiz-adv-x="577" 
d="M447 640l-257 -111l-54 88l238 148zM288 -11q-111 0 -186.5 73.5t-75.5 185.5t75.5 185t186.5 73q112 0 187.5 -73t75.5 -185t-75.5 -185.5t-187.5 -73.5zM288 127q43 0 72 32t29 89q0 56 -29.5 88t-71.5 32q-41 0 -70.5 -32t-29.5 -88q0 -57 29 -89t71 -32z" />
    <glyph glyph-name="ocircumflex" unicode="&#xf4;" horiz-adv-x="577" 
d="M336 558l-52 63l-52 -63h-132l111 179h147l111 -179h-133zM288 -11q-111 0 -186.5 73.5t-75.5 185.5t75.5 185t186.5 73q112 0 187.5 -73t75.5 -185t-75.5 -185.5t-187.5 -73.5zM288 127q43 0 72 32t29 89q0 56 -29.5 88t-71.5 32q-41 0 -70.5 -32t-29.5 -88
q0 -57 29 -89t71 -32z" />
    <glyph glyph-name="otilde" unicode="&#xf5;" horiz-adv-x="577" 
d="M221 597q-26 0 -29 -29h-87q0 73 28 111.5t80 38.5q24 0 77 -16.5t64 -16.5q26 0 30 29h86q0 -73 -28 -111.5t-80 -38.5q-24 0 -76.5 16.5t-64.5 16.5zM288 -11q-111 0 -186.5 73.5t-75.5 185.5t75.5 185t186.5 73q112 0 187.5 -73t75.5 -185t-75.5 -185.5t-187.5 -73.5z
M288 127q43 0 72 32t29 89q0 56 -29.5 88t-71.5 32q-41 0 -70.5 -32t-29.5 -88q0 -57 29 -89t71 -32z" />
    <glyph glyph-name="odieresis" unicode="&#xf6;" horiz-adv-x="577" 
d="M310 555v148h158v-148h-158zM109 555v148h158v-148h-158zM288 -11q-111 0 -186.5 73.5t-75.5 185.5t75.5 185t186.5 73q112 0 187.5 -73t75.5 -185t-75.5 -185.5t-187.5 -73.5zM288 127q43 0 72 32t29 89q0 56 -29.5 88t-71.5 32q-41 0 -70.5 -32t-29.5 -88q0 -57 29 -89
t71 -32z" />
    <glyph glyph-name="divide" unicode="&#xf7;" horiz-adv-x="640" 
d="M243 468v142h154v-142h-154zM77 411h486v-126h-486v126zM243 87v141h154v-141h-154z" />
    <glyph glyph-name="oslash" unicode="&#xf8;" horiz-adv-x="577" 
d="M288 -11q-111 0 -186.5 73.5t-75.5 185.5t75.5 185t186.5 73q112 0 187.5 -73t75.5 -185t-75.5 -185.5t-187.5 -73.5zM188 248q0 -26 7 -50l135 160q-19 10 -42 10q-41 0 -70.5 -32t-29.5 -88zM288 127q43 0 72 32t29 89q0 24 -7 48l-135 -160q19 -9 41 -9z" />
    <glyph glyph-name="ugrave" unicode="&#xf9;" horiz-adv-x="549" 
d="M110 640l73 125l238 -148l-55 -88zM277 125q33 0 51 20.5t18 53.5v295h156v-301q0 -92 -60 -148t-165 -56q-107 0 -168.5 56t-61.5 148v301h160v-295q0 -33 18 -53.5t52 -20.5z" />
    <glyph glyph-name="uacute" unicode="&#xfa;" horiz-adv-x="549" 
d="M433 640l-257 -111l-54 88l238 148zM277 125q33 0 51 20.5t18 53.5v295h156v-301q0 -92 -60 -148t-165 -56q-107 0 -168.5 56t-61.5 148v301h160v-295q0 -33 18 -53.5t52 -20.5z" />
    <glyph glyph-name="ucircumflex" unicode="&#xfb;" horiz-adv-x="549" 
d="M322 558l-52 63l-52 -63h-132l111 179h147l111 -179h-133zM277 125q33 0 51 20.5t18 53.5v295h156v-301q0 -92 -60 -148t-165 -56q-107 0 -168.5 56t-61.5 148v301h160v-295q0 -33 18 -53.5t52 -20.5z" />
    <glyph glyph-name="udieresis" unicode="&#xfc;" horiz-adv-x="549" 
d="M296 555v148h158v-148h-158zM95 555v148h158v-148h-158zM277 125q33 0 51 20.5t18 53.5v295h156v-301q0 -92 -60 -148t-165 -56q-107 0 -168.5 56t-61.5 148v301h160v-295q0 -33 18 -53.5t52 -20.5z" />
    <glyph glyph-name="yacute" unicode="&#xfd;" horiz-adv-x="554" 
d="M436 640l-257 -111l-54 88l238 148zM156 -205q-59 0 -103.5 29t-59.5 75l118 57q9 -29 39 -29q33 0 45 37l13 36h-18l-183 494h182l97 -317l93 317h169l-200 -556q-26 -71 -76 -107t-116 -36z" />
    <glyph glyph-name="thorn" unicode="&#xfe;" horiz-adv-x="611" 
d="M316 368q-44 0 -75 -32.5t-31 -87.5q0 -56 31 -88.5t75 -32.5q42 0 73 32.5t31 88.5q0 55 -31 87.5t-73 32.5zM354 -11q-87 0 -142 62v-241h-160v890h160v-257q55 63 142 63q97 0 163.5 -72.5t66.5 -185.5q0 -114 -66 -186.5t-164 -72.5z" />
    <glyph glyph-name="ydieresis" unicode="&#xff;" horiz-adv-x="554" 
d="M298 555v148h158v-148h-158zM97 555v148h158v-148h-158zM156 -205q-59 0 -103.5 29t-59.5 75l118 57q9 -29 39 -29q33 0 45 37l13 36h-18l-183 494h182l97 -317l93 317h169l-200 -556q-26 -71 -76 -107t-116 -36z" />
    <glyph glyph-name="Amacron" unicode="&#x100;" horiz-adv-x="701" 
d="M185 774v111h333v-111h-333zM422 266l-75 233l-76 -233h151zM509 0l-47 140h-232l-47 -140h-182l248 700h202l250 -700h-192z" />
    <glyph glyph-name="amacron" unicode="&#x101;" horiz-adv-x="610" 
d="M139 568v111h333v-111h-333zM294 368q-42 0 -73 -32.5t-31 -87.5q0 -56 31 -88.5t73 -32.5q44 0 75.5 32.5t31.5 88.5q0 55 -32 87.5t-75 32.5zM398 0v51q-54 -62 -142 -62q-97 0 -163 72.5t-66 186.5q0 113 66 185.5t163 72.5q89 0 142 -63v51h160v-494h-160z" />
    <glyph glyph-name="Abreve" unicode="&#x102;" horiz-adv-x="701" 
d="M187 925h111v-15q0 -24 14.5 -36t37.5 -12q52 0 52 48v15h112v-40q0 -59 -44 -96.5t-120 -37.5q-77 0 -120 37.5t-43 96.5v40zM422 266l-75 233l-76 -233h151zM509 0l-47 140h-232l-47 -140h-182l248 700h202l250 -700h-192z" />
    <glyph glyph-name="abreve" unicode="&#x103;" horiz-adv-x="610" 
d="M141 719h111v-15q0 -24 14.5 -36t37.5 -12q52 0 52 48v15h112v-40q0 -59 -44 -96.5t-120 -37.5q-77 0 -120 37.5t-43 96.5v40zM294 368q-42 0 -73 -32.5t-31 -87.5q0 -56 31 -88.5t73 -32.5q44 0 75.5 32.5t31.5 88.5q0 55 -32 87.5t-75 32.5zM398 0v51q-54 -62 -142 -62
q-97 0 -163 72.5t-66 186.5q0 113 66 185.5t163 72.5q89 0 142 -63v51h160v-494h-160z" />
    <glyph glyph-name="Aogonek" unicode="&#x104;" horiz-adv-x="701" 
d="M422 266l-75 233l-76 -233h151zM653 -197q-46 -10 -81 -10q-50 0 -82.5 22.5t-32.5 67.5q0 59 67 117h-15l-47 140h-232l-47 -140h-182l248 700h202l250 -700h-76q-37 -56 -37 -82q0 -30 39 -30q8 0 26 2v-87z" />
    <glyph glyph-name="aogonek" unicode="&#x105;" horiz-adv-x="610" 
d="M294 368q-42 0 -73 -32.5t-31 -87.5q0 -56 31 -88.5t73 -32.5q44 0 75.5 32.5t31.5 88.5q0 55 -32 87.5t-75 32.5zM560 -197q-46 -10 -81 -10q-50 0 -82.5 22.5t-32.5 67.5q0 59 67 117h-33v51q-54 -62 -142 -62q-97 0 -163 72.5t-66 186.5q0 113 66 185.5t163 72.5
q89 0 142 -63v51h160v-494h-26q-37 -56 -37 -82q0 -30 39 -30q8 0 26 2v-87z" />
    <glyph glyph-name="Cacute" unicode="&#x106;" horiz-adv-x="662" 
d="M491 846l-257 -111l-54 88l238 148zM651 89q-105 -100 -256 -100q-152 0 -257.5 100t-105.5 261t105.5 261t257.5 100q151 0 256 -100l-110 -119q-53 64 -139 64q-78 0 -134 -56t-56 -150t56 -150t134 -56q84 0 139 64z" />
    <glyph glyph-name="cacute" unicode="&#x107;" horiz-adv-x="510" 
d="M425 640l-257 -111l-54 88l238 148zM27 248q0 112 73.5 185t184.5 73q70 0 124 -30.5t84 -80.5l-121 -79q-28 51 -83 51q-40 0 -69.5 -32t-29.5 -87q0 -56 29.5 -88t69.5 -32q55 0 83 51l121 -79q-30 -50 -84 -80.5t-124 -30.5q-111 0 -184.5 73t-73.5 186z" />
    <glyph glyph-name="Ccircumflex" unicode="&#x108;" horiz-adv-x="662" 
d="M380 764l-52 63l-52 -63h-132l111 179h147l111 -179h-133zM651 89q-105 -100 -256 -100q-152 0 -257.5 100t-105.5 261t105.5 261t257.5 100q151 0 256 -100l-110 -119q-53 64 -139 64q-78 0 -134 -56t-56 -150t56 -150t134 -56q84 0 139 64z" />
    <glyph glyph-name="ccircumflex" unicode="&#x109;" horiz-adv-x="510" 
d="M314 558l-52 63l-52 -63h-132l111 179h147l111 -179h-133zM27 248q0 112 73.5 185t184.5 73q70 0 124 -30.5t84 -80.5l-121 -79q-28 51 -83 51q-40 0 -69.5 -32t-29.5 -87q0 -56 29.5 -88t69.5 -32q55 0 83 51l121 -79q-30 -50 -84 -80.5t-124 -30.5q-111 0 -184.5 73
t-73.5 186z" />
    <glyph glyph-name="Cdotaccent" unicode="&#x10a;" horiz-adv-x="662" 
d="M239 764v157h180v-157h-180zM651 89q-105 -100 -256 -100q-152 0 -257.5 100t-105.5 261t105.5 261t257.5 100q151 0 256 -100l-110 -119q-53 64 -139 64q-78 0 -134 -56t-56 -150t56 -150t134 -56q84 0 139 64z" />
    <glyph glyph-name="cdotaccent" unicode="&#x10b;" horiz-adv-x="510" 
d="M173 558v157h180v-157h-180zM27 248q0 112 73.5 185t184.5 73q70 0 124 -30.5t84 -80.5l-121 -79q-28 51 -83 51q-40 0 -69.5 -32t-29.5 -87q0 -56 29.5 -88t69.5 -32q55 0 83 51l121 -79q-30 -50 -84 -80.5t-124 -30.5q-111 0 -184.5 73t-73.5 186z" />
    <glyph glyph-name="Ccaron" unicode="&#x10c;" horiz-adv-x="662" 
d="M380 943h133l-111 -179h-147l-110 179h131l52 -63zM651 89q-105 -100 -256 -100q-152 0 -257.5 100t-105.5 261t105.5 261t257.5 100q151 0 256 -100l-110 -119q-53 64 -139 64q-78 0 -134 -56t-56 -150t56 -150t134 -56q84 0 139 64z" />
    <glyph glyph-name="ccaron" unicode="&#x10d;" horiz-adv-x="510" 
d="M314 737h133l-111 -179h-147l-110 179h131l52 -63zM27 248q0 112 73.5 185t184.5 73q70 0 124 -30.5t84 -80.5l-121 -79q-28 51 -83 51q-40 0 -69.5 -32t-29.5 -87q0 -56 29.5 -88t69.5 -32q55 0 83 51l121 -79q-30 -50 -84 -80.5t-124 -30.5q-111 0 -184.5 73t-73.5 186
z" />
    <glyph glyph-name="Dcaron" unicode="&#x10e;" horiz-adv-x="726" 
d="M410 943h133l-111 -179h-147l-110 179h131l52 -63zM693 350q0 -161 -103 -255.5t-251 -94.5h-269v700h269q148 0 251 -94.5t103 -255.5zM507 350q0 57 -18 98.5t-48.5 63.5t-64.5 32t-72 10h-59v-408h59q38 0 72 10t64.5 32t48.5 63.5t18 98.5z" />
    <glyph glyph-name="dcaron" unicode="&#x10f;" horiz-adv-x="743" 
d="M671 411h-68v73h29q31 0 31 31v20h-60v165h164v-199q0 -90 -96 -90zM294 368q-42 0 -73 -32.5t-31 -87.5q0 -56 31 -88.5t73 -32.5q44 0 75.5 32.5t31.5 88.5q0 55 -32 87.5t-75 32.5zM398 0v51q-54 -62 -142 -62q-97 0 -163 72.5t-66 186.5q0 113 66 185.5t163 72.5
q89 0 142 -63v257h160v-700h-160z" />
    <glyph glyph-name="Dcroat" unicode="&#x110;" horiz-adv-x="736" 
d="M349 0h-269v285h-69v126h69v289h269q148 0 251 -94.5t103 -255.5t-103 -255.5t-251 -94.5zM255 146h59q38 0 72 10t64.5 32t48.5 63.5t18 98.5t-18 98.5t-48.5 63.5t-64.5 32t-72 10h-59v-143h143v-126h-143v-139z" />
    <glyph glyph-name="dcroat" unicode="&#x111;" horiz-adv-x="611" 
d="M294 368q-42 0 -73 -32.5t-31 -87.5q0 -56 31 -88.5t73 -32.5q44 0 75.5 32.5t31.5 88.5q0 55 -32 87.5t-75 32.5zM398 51q-54 -62 -142 -62q-97 0 -163 72.5t-66 186.5q0 113 66 185.5t163 72.5q89 0 142 -63v104h-118v81h118v72h160v-72h42v-81h-42v-547h-160v51z" />
    <glyph glyph-name="Emacron" unicode="&#x112;" horiz-adv-x="589" 
d="M142 774v111h333v-111h-333zM70 0v700h476v-146h-301v-129h237v-142h-237v-137h310v-146h-485z" />
    <glyph glyph-name="emacron" unicode="&#x113;" horiz-adv-x="564" 
d="M117 568v111h333v-111h-333zM289 -11q-115 0 -188.5 72t-73.5 186q0 112 74 185.5t183 73.5q113 0 185.5 -74.5t72.5 -193.5v-23h-349q8 -44 35 -67.5t65 -23.5q63 0 90 54l148 -40q-27 -72 -91 -110.5t-151 -38.5zM288 384q-33 0 -58 -21t-34 -61h182q-8 38 -32 60
t-58 22z" />
    <glyph glyph-name="Ebreve" unicode="&#x114;" horiz-adv-x="589" 
d="M144 925h111v-15q0 -24 14.5 -36t37.5 -12q52 0 52 48v15h112v-40q0 -59 -44 -96.5t-120 -37.5q-77 0 -120 37.5t-43 96.5v40zM70 0v700h476v-146h-301v-129h237v-142h-237v-137h310v-146h-485z" />
    <glyph glyph-name="ebreve" unicode="&#x115;" horiz-adv-x="564" 
d="M119 719h111v-15q0 -24 14.5 -36t37.5 -12q52 0 52 48v15h112v-40q0 -59 -44 -96.5t-120 -37.5q-77 0 -120 37.5t-43 96.5v40zM289 -11q-115 0 -188.5 72t-73.5 186q0 112 74 185.5t183 73.5q113 0 185.5 -74.5t72.5 -193.5v-23h-349q8 -44 35 -67.5t65 -23.5q63 0 90 54
l148 -40q-27 -72 -91 -110.5t-151 -38.5zM288 384q-33 0 -58 -21t-34 -61h182q-8 38 -32 60t-58 22z" />
    <glyph glyph-name="Edotaccent" unicode="&#x116;" horiz-adv-x="589" 
d="M215 764v157h180v-157h-180zM70 0v700h476v-146h-301v-129h237v-142h-237v-137h310v-146h-485z" />
    <glyph glyph-name="edotaccent" unicode="&#x117;" horiz-adv-x="564" 
d="M190 558v157h180v-157h-180zM289 -11q-115 0 -188.5 72t-73.5 186q0 112 74 185.5t183 73.5q113 0 185.5 -74.5t72.5 -193.5v-23h-349q8 -44 35 -67.5t65 -23.5q63 0 90 54l148 -40q-27 -72 -91 -110.5t-151 -38.5zM288 384q-33 0 -58 -21t-34 -61h182q-8 38 -32 60
t-58 22z" />
    <glyph glyph-name="Eogonek" unicode="&#x118;" horiz-adv-x="589" 
d="M512 -197q-46 -10 -81 -10q-50 0 -82.5 22.5t-32.5 67.5q0 59 67 117h-313v700h476v-146h-301v-129h237v-142h-237v-137h310v-146h-71q-37 -56 -37 -82q0 -30 39 -30q8 0 26 2v-87z" />
    <glyph glyph-name="eogonek" unicode="&#x119;" horiz-adv-x="565" 
d="M341 -207q-50 0 -82.5 22.5t-32.5 67.5q0 51 55 106q-112 3 -183 75t-71 183q0 112 74 185.5t183 73.5q113 0 185.5 -74.5t72.5 -193.5v-23h-349q8 -44 35 -67.5t65 -23.5q63 0 90 54l148 -40q-34 -93 -131 -130q-43 -63 -43 -90q0 -30 39 -30q8 0 26 2v-87
q-46 -10 -81 -10zM288 384q-33 0 -58 -21t-34 -61h182q-8 38 -32 60t-58 22z" />
    <glyph glyph-name="Ecaron" unicode="&#x11a;" horiz-adv-x="589" 
d="M356 943h133l-111 -179h-147l-110 179h131l52 -63zM70 0v700h476v-146h-301v-129h237v-142h-237v-137h310v-146h-485z" />
    <glyph glyph-name="ecaron" unicode="&#x11b;" horiz-adv-x="564" 
d="M331 737h133l-111 -179h-147l-110 179h131l52 -63zM289 -11q-115 0 -188.5 72t-73.5 186q0 112 74 185.5t183 73.5q113 0 185.5 -74.5t72.5 -193.5v-23h-349q8 -44 35 -67.5t65 -23.5q63 0 90 54l148 -40q-27 -72 -91 -110.5t-151 -38.5zM288 384q-33 0 -58 -21t-34 -61
h182q-8 38 -32 60t-58 22z" />
    <glyph glyph-name="Gcircumflex" unicode="&#x11c;" horiz-adv-x="764" 
d="M432 764l-52 63l-52 -63h-132l111 179h147l111 -179h-133zM707 0l-108 63q-81 -74 -211 -74q-156 0 -255.5 99t-99.5 262q0 159 105.5 260t256.5 101q109 0 191 -44.5t126 -126.5l-148 -78q-51 95 -163 95q-80 0 -134 -57.5t-54 -152.5q0 -97 55.5 -153.5t138.5 -56.5
q99 0 146 63v59h-176v123h340v-382h-10z" />
    <glyph glyph-name="gcircumflex" unicode="&#x11d;" horiz-adv-x="601" 
d="M342 558l-52 63l-52 -63h-132l111 179h147l111 -179h-133zM289 153q43 0 73.5 30t30.5 81t-30.5 80.5t-73.5 29.5q-39 0 -68.5 -30t-29.5 -80q0 -51 29.5 -81t68.5 -30zM291 -205q-101 0 -169 46t-79 126l164 19q5 -24 28.5 -40.5t57.5 -16.5q43 0 69.5 26t26.5 68v52
q-50 -53 -131 -53q-99 0 -164.5 67.5t-65.5 174.5t65.5 174.5t164.5 67.5q80 0 131 -54v42h160v-467q0 -109 -73.5 -170.5t-184.5 -61.5z" />
    <glyph glyph-name="Gbreve" unicode="&#x11e;" horiz-adv-x="764" 
d="M220 925h111v-15q0 -24 14.5 -36t37.5 -12q52 0 52 48v15h112v-40q0 -59 -44 -96.5t-120 -37.5q-77 0 -120 37.5t-43 96.5v40zM707 0l-108 63q-81 -74 -211 -74q-156 0 -255.5 99t-99.5 262q0 159 105.5 260t256.5 101q109 0 191 -44.5t126 -126.5l-148 -78
q-51 95 -163 95q-80 0 -134 -57.5t-54 -152.5q0 -97 55.5 -153.5t138.5 -56.5q99 0 146 63v59h-176v123h340v-382h-10z" />
    <glyph glyph-name="gbreve" unicode="&#x11f;" horiz-adv-x="601" 
d="M130 719h111v-15q0 -24 14.5 -36t37.5 -12q52 0 52 48v15h112v-40q0 -59 -44 -96.5t-120 -37.5q-77 0 -120 37.5t-43 96.5v40zM289 153q43 0 73.5 30t30.5 81t-30.5 80.5t-73.5 29.5q-39 0 -68.5 -30t-29.5 -80q0 -51 29.5 -81t68.5 -30zM291 -205q-101 0 -169 46
t-79 126l164 19q5 -24 28.5 -40.5t57.5 -16.5q43 0 69.5 26t26.5 68v52q-50 -53 -131 -53q-99 0 -164.5 67.5t-65.5 174.5t65.5 174.5t164.5 67.5q80 0 131 -54v42h160v-467q0 -109 -73.5 -170.5t-184.5 -61.5z" />
    <glyph glyph-name="Gdotaccent" unicode="&#x120;" horiz-adv-x="764" 
d="M291 764v157h180v-157h-180zM707 0l-108 63q-81 -74 -211 -74q-156 0 -255.5 99t-99.5 262q0 159 105.5 260t256.5 101q109 0 191 -44.5t126 -126.5l-148 -78q-51 95 -163 95q-80 0 -134 -57.5t-54 -152.5q0 -97 55.5 -153.5t138.5 -56.5q99 0 146 63v59h-176v123h340
v-382h-10z" />
    <glyph glyph-name="gdotaccent" unicode="&#x121;" horiz-adv-x="601" 
d="M201 558v157h180v-157h-180zM289 153q43 0 73.5 30t30.5 81t-30.5 80.5t-73.5 29.5q-39 0 -68.5 -30t-29.5 -80q0 -51 29.5 -81t68.5 -30zM291 -205q-101 0 -169 46t-79 126l164 19q5 -24 28.5 -40.5t57.5 -16.5q43 0 69.5 26t26.5 68v52q-50 -53 -131 -53
q-99 0 -164.5 67.5t-65.5 174.5t65.5 174.5t164.5 67.5q80 0 131 -54v42h160v-467q0 -109 -73.5 -170.5t-184.5 -61.5z" />
    <glyph glyph-name="Gcommaaccent" unicode="&#x122;" horiz-adv-x="764" 
d="M707 0l-108 63q-81 -74 -211 -74q-156 0 -255.5 99t-99.5 262q0 159 105.5 260t256.5 101q109 0 191 -44.5t126 -126.5l-148 -78q-51 95 -163 95q-80 0 -134 -57.5t-54 -152.5q0 -97 55.5 -153.5t138.5 -56.5q99 0 146 63v59h-176v123h340v-382h-10zM375 -306h-77v73h39
q31 0 31 31v18h-70v139h174v-171q0 -90 -97 -90z" />
    <glyph glyph-name="gcommaaccent" unicode="&#x123;" horiz-adv-x="601" 
d="M302 829h68v-73h-31q-16 0 -22.5 -6.5t-6.5 -22.5v-11h60v-159h-165v183q0 89 97 89zM289 153q43 0 73.5 30t30.5 81t-30.5 80.5t-73.5 29.5q-39 0 -68.5 -30t-29.5 -80q0 -51 29.5 -81t68.5 -30zM291 -205q-101 0 -169 46t-79 126l164 19q5 -24 28.5 -40.5t57.5 -16.5
q43 0 69.5 26t26.5 68v52q-50 -53 -131 -53q-99 0 -164.5 67.5t-65.5 174.5t65.5 174.5t164.5 67.5q80 0 131 -54v42h160v-467q0 -109 -73.5 -170.5t-184.5 -61.5z" />
    <glyph glyph-name="Hcircumflex" unicode="&#x124;" horiz-adv-x="763" 
d="M429 764l-52 63l-52 -63h-132l111 179h147l111 -179h-133zM518 0v284h-273v-284h-175v700h175v-268h273v268h175v-700h-175z" />
    <glyph glyph-name="hcircumflex" unicode="&#x125;" horiz-adv-x="569" 
d="M332 764l-52 63l-52 -63h-132l111 179h147l111 -179h-133zM52 0v700h160v-241q50 47 122 47q81 0 134 -49.5t53 -137.5v-319h-160v289q0 29 -17 52t-54 23t-57.5 -24.5t-20.5 -60.5v-279h-160z" />
    <glyph glyph-name="Hbar" unicode="&#x126;" horiz-adv-x="769" 
d="M248 432h273v84h-273v-84zM248 284v-284h-175v516h-55v96h55v88h175v-88h273v88h175v-88h55v-96h-55v-516h-175v284h-273z" />
    <glyph glyph-name="hbar" unicode="&#x127;" horiz-adv-x="570" 
d="M213 279v-279h-160v547h-42v81h42v72h160v-72h118v-81h-118v-88q50 47 122 47q81 0 134 -49.5t53 -137.5v-319h-160v289q0 29 -17 52t-54 23t-57.5 -24.5t-20.5 -60.5z" />
    <glyph glyph-name="Itilde" unicode="&#x128;" horiz-adv-x="315" 
d="M90 803q-26 0 -29 -29h-87q0 73 28 111.5t80 38.5q24 0 77 -16.5t64 -16.5q26 0 30 29h86q0 -73 -28 -111.5t-80 -38.5q-24 0 -76.5 16.5t-64.5 16.5zM70 700h175v-700h-175v700z" />
    <glyph glyph-name="itilde" unicode="&#x129;" horiz-adv-x="266" 
d="M72 597q-26 0 -29 -29h-87q0 73 28 111.5t80 38.5q24 0 77 -16.5t64 -16.5q26 0 30 29h86q0 -73 -28 -111.5t-80 -38.5q-24 0 -76.5 16.5t-64.5 16.5zM53 494h160v-494h-160v494z" />
    <glyph glyph-name="Imacron" unicode="&#x12a;" horiz-adv-x="315" 
d="M-9 774v111h333v-111h-333zM70 700h175v-700h-175v700z" />
    <glyph glyph-name="imacron" unicode="&#x12b;" horiz-adv-x="266" 
d="M-32 568v111h333v-111h-333zM53 494h160v-494h-160v494z" />
    <glyph glyph-name="Ibreve" unicode="&#x12c;" horiz-adv-x="315" 
d="M-7 925h111v-15q0 -24 14.5 -36t37.5 -12q52 0 52 48v15h112v-40q0 -59 -44 -96.5t-120 -37.5q-77 0 -120 37.5t-43 96.5v40zM70 700h175v-700h-175v700z" />
    <glyph glyph-name="ibreve" unicode="&#x12d;" horiz-adv-x="266" 
d="M-30 719h111v-15q0 -24 14.5 -36t37.5 -12q52 0 52 48v15h112v-40q0 -59 -44 -96.5t-120 -37.5q-77 0 -120 37.5t-43 96.5v40zM53 494h160v-494h-160v494z" />
    <glyph glyph-name="Iogonek" unicode="&#x12e;" horiz-adv-x="315" 
d="M256 -197q-46 -10 -81 -10q-50 0 -82.5 22.5t-32.5 67.5q0 59 67 117h-57v700h175v-700h-17q-37 -56 -37 -82q0 -30 39 -30q8 0 26 2v-87z" />
    <glyph glyph-name="iogonek" unicode="&#x12f;" horiz-adv-x="264" 
d="M52 700h160v-146h-160v146zM225 -197q-46 -10 -81 -10q-50 0 -82.5 22.5t-32.5 67.5q0 59 67 117h-44v494h160v-494h-15q-37 -56 -37 -82q0 -30 39 -30q8 0 26 2v-87z" />
    <glyph glyph-name="Idotaccent" unicode="&#x130;" horiz-adv-x="315" 
d="M64 764v157h180v-157h-180zM70 700h175v-700h-175v700z" />
    <glyph glyph-name="dotlessi" unicode="&#x131;" horiz-adv-x="264" 
d="M52 494h160v-494h-160v494z" />
    <glyph glyph-name="IJ" unicode="&#x132;" horiz-adv-x="844" 
d="M70 700h175v-700h-175v700zM536 -11q-84 0 -140 33.5t-82 84.5l146 79q8 -22 27.5 -34.5t41.5 -12.5q32 0 53.5 20t21.5 61v480h175v-482q0 -96 -67 -162.5t-176 -66.5z" />
    <glyph glyph-name="ij" unicode="&#x133;" horiz-adv-x="529" 
d="M317 700h160v-146h-160v146zM52 700h160v-146h-160v146zM52 494h160v-494h-160v494zM118 -81l127 43q2 -12 12.5 -20.5t23.5 -8.5q15 0 25.5 10.5t10.5 32.5v518h160v-510q0 -92 -54.5 -140.5t-130.5 -48.5q-65 0 -114 33.5t-60 90.5z" />
    <glyph glyph-name="Jcircumflex" unicode="&#x134;" horiz-adv-x="528" 
d="M422 764l-52 63l-52 -63h-132l111 179h147l111 -179h-133zM220 -11q-84 0 -140 33.5t-82 84.5l146 79q8 -22 27.5 -34.5t41.5 -12.5q32 0 53.5 20t21.5 61v480h175v-482q0 -96 -67 -162.5t-176 -66.5z" />
    <glyph glyph-name="jcircumflex" unicode="&#x135;" horiz-adv-x="266" 
d="M185 558l-52 63l-52 -63h-132l111 179h147l111 -179h-133zM-146 -81l127 43q2 -12 12.5 -20.5t23.5 -8.5q15 0 25.5 10.5t10.5 32.5v518h160v-510q0 -92 -54.5 -140.5t-130.5 -48.5q-65 0 -114 33.5t-60 90.5z" />
    <glyph glyph-name="Kcommaaccent" unicode="&#x136;" horiz-adv-x="705" 
d="M511 0l-195 297l-71 -79v-218h-175v700h175v-289l251 289h203l-261 -284l279 -416h-206zM350 -306h-77v73h39q31 0 31 31v18h-70v139h174v-171q0 -90 -97 -90z" />
    <glyph glyph-name="kcommaaccent" unicode="&#x137;" horiz-adv-x="555" 
d="M373 0l-117 199l-44 -51v-148h-160v700h160v-388l146 182h190l-169 -196l184 -298h-190zM272 -306h-77v73h39q31 0 31 31v18h-70v139h174v-171q0 -90 -97 -90z" />
    <glyph glyph-name="kgreenlandic" unicode="&#x138;" horiz-adv-x="548" 
d="M369 0l-157 237v-237h-160v494h160v-213l143 213h179l-161 -225l187 -269h-191z" />
    <glyph glyph-name="Lacute" unicode="&#x139;" horiz-adv-x="548" 
d="M414 846l-257 -111l-54 88l238 148zM70 0v700h175v-554h289v-146h-464z" />
    <glyph glyph-name="lacute" unicode="&#x13a;" horiz-adv-x="264" 
d="M292 846l-257 -111l-54 88l238 148zM52 700h160v-700h-160v700z" />
    <glyph glyph-name="Lcommaaccent" unicode="&#x13b;" horiz-adv-x="548" 
d="M70 0v700h175v-554h289v-146h-464zM268 -306h-77v73h39q31 0 31 31v18h-70v139h174v-171q0 -90 -97 -90z" />
    <glyph glyph-name="lcommaaccent" unicode="&#x13c;" horiz-adv-x="264" 
d="M52 700h160v-700h-160v700zM122 -306h-77v73h39q31 0 31 31v18h-70v139h174v-171q0 -90 -97 -90z" />
    <glyph glyph-name="Lcaron" unicode="&#x13d;" horiz-adv-x="582" 
d="M422 411h-68v73h30q30 0 30 31v20h-60v165h165v-199q0 -90 -97 -90zM70 0v700h175v-555h289v-145h-464z" />
    <glyph glyph-name="lcaron" unicode="&#x13e;" horiz-adv-x="398" 
d="M325 411h-68v73h30q30 0 30 31v20h-60v165h165v-199q0 -90 -97 -90zM52 700h160v-700h-160v700z" />
    <glyph glyph-name="Ldot" unicode="&#x13f;" horiz-adv-x="555" 
d="M70 0v700h175v-554h289v-146h-464zM337 292v174h177v-174h-177z" />
    <glyph glyph-name="ldot" unicode="&#x140;" horiz-adv-x="450" 
d="M52 700h160v-700h-160v700zM269 216v174h177v-174h-177z" />
    <glyph glyph-name="Lslash" unicode="&#x141;" horiz-adv-x="558" 
d="M544 0h-464v217l-69 -28v107l69 28v376h175v-303l156 64v-107l-156 -64v-144h289v-146z" />
    <glyph glyph-name="lslash" unicode="&#x142;" horiz-adv-x="297" 
d="M229 0h-160v211l-54 -22v107l54 22v382h160v-318l55 22v-107l-55 -22v-275z" />
    <glyph glyph-name="Nacute" unicode="&#x143;" horiz-adv-x="788" 
d="M553 846l-257 -111l-54 88l238 148zM528 0l-290 439v-439h-168v700h190l290 -439v439h168v-700h-190z" />
    <glyph glyph-name="nacute" unicode="&#x144;" horiz-adv-x="569" 
d="M444 640l-257 -111l-54 88l238 148zM52 0v494h151v-47q50 59 135 59q81 0 132 -49.5t51 -137.5v-319h-160v289q0 29 -17 52t-54 23t-57.5 -24.5t-20.5 -60.5v-279h-160z" />
    <glyph glyph-name="Ncommaaccent" unicode="&#x145;" horiz-adv-x="788" 
d="M528 0l-290 439v-439h-168v700h190l290 -439v439h168v-700h-190zM385 -306h-77v73h39q31 0 31 31v18h-70v139h174v-171q0 -90 -97 -90z" />
    <glyph glyph-name="ncommaaccent" unicode="&#x146;" horiz-adv-x="569" 
d="M52 0v494h151v-47q50 59 135 59q81 0 132 -49.5t51 -137.5v-319h-160v289q0 29 -17 52t-54 23t-57.5 -24.5t-20.5 -60.5v-279h-160zM274 -306h-77v73h39q31 0 31 31v18h-70v139h174v-171q0 -90 -97 -90z" />
    <glyph glyph-name="Ncaron" unicode="&#x147;" horiz-adv-x="788" 
d="M442 943h133l-111 -179h-147l-110 179h131l52 -63zM528 0l-290 439v-439h-168v700h190l290 -439v439h168v-700h-190z" />
    <glyph glyph-name="ncaron" unicode="&#x148;" horiz-adv-x="569" 
d="M333 737h133l-111 -179h-147l-110 179h131l52 -63zM52 0v494h151v-47q50 59 135 59q81 0 132 -49.5t51 -137.5v-319h-160v289q0 29 -17 52t-54 23t-57.5 -24.5t-20.5 -60.5v-279h-160z" />
    <glyph glyph-name="napostrophe" unicode="&#x149;" horiz-adv-x="750" 
d="M90 433h-68v73h30q30 0 30 31v9h-60v154h165v-177q0 -90 -97 -90zM233 0v494h151v-47q50 59 135 59q81 0 132 -49.5t51 -137.5v-319h-160v289q0 29 -17 52t-54 23t-57.5 -24.5t-20.5 -60.5v-279h-160z" />
    <glyph glyph-name="Eng" unicode="&#x14a;" horiz-adv-x="788" 
d="M475 -241q-84 0 -140 34t-81 84l145 79q8 -22 27.5 -34.5t42.5 -12.5q31 0 54 21.5t23 62.5v7h-18l-290 439v-439h-168v700h190l290 -439v439h168v-702q0 -101 -61.5 -170t-181.5 -69z" />
    <glyph glyph-name="eng" unicode="&#x14b;" horiz-adv-x="569" 
d="M335 -205q-65 0 -113.5 33.5t-59.5 90.5l127 43q2 -12 12.5 -20.5t23.5 -8.5q15 0 25.5 10.5t10.5 32.5v313q0 29 -17 52t-54 23t-57.5 -24.5t-20.5 -60.5v-279h-160v494h151v-47q50 59 135 59q81 0 132 -49.5t51 -137.5v-335q0 -92 -54.5 -140.5t-131.5 -48.5z" />
    <glyph glyph-name="Omacron" unicode="&#x14c;" horiz-adv-x="802" 
d="M235 774v111h333v-111h-333zM401 711q150 0 259.5 -100.5t109.5 -260.5t-109 -260.5t-260 -100.5q-150 0 -259.5 100.5t-109.5 260.5t109.5 260.5t259.5 100.5zM401 556q-77 0 -133 -56t-56 -150t56 -150t133 -56t132 56t55 150t-55 150t-132 56z" />
    <glyph glyph-name="omacron" unicode="&#x14d;" horiz-adv-x="577" 
d="M122 568v111h333v-111h-333zM288 -11q-111 0 -186.5 73.5t-75.5 185.5t75.5 185t186.5 73q112 0 187.5 -73t75.5 -185t-75.5 -185.5t-187.5 -73.5zM288 127q43 0 72 32t29 89q0 56 -29.5 88t-71.5 32q-41 0 -70.5 -32t-29.5 -88q0 -57 29 -89t71 -32z" />
    <glyph glyph-name="Obreve" unicode="&#x14e;" horiz-adv-x="802" 
d="M237 925h111v-15q0 -24 14.5 -36t37.5 -12q52 0 52 48v15h112v-40q0 -59 -44 -96.5t-120 -37.5q-77 0 -120 37.5t-43 96.5v40zM401 711q150 0 259.5 -100.5t109.5 -260.5t-109 -260.5t-260 -100.5q-150 0 -259.5 100.5t-109.5 260.5t109.5 260.5t259.5 100.5zM401 556
q-77 0 -133 -56t-56 -150t56 -150t133 -56t132 56t55 150t-55 150t-132 56z" />
    <glyph glyph-name="obreve" unicode="&#x14f;" horiz-adv-x="577" 
d="M125 719h111v-15q0 -24 14.5 -36t37.5 -12q52 0 52 48v15h112v-40q0 -59 -44 -96.5t-120 -37.5q-77 0 -120 37.5t-43 96.5v40zM288 -11q-111 0 -186.5 73.5t-75.5 185.5t75.5 185t186.5 73q112 0 187.5 -73t75.5 -185t-75.5 -185.5t-187.5 -73.5zM288 127q43 0 72 32
t29 89q0 56 -29.5 88t-71.5 32q-41 0 -70.5 -32t-29.5 -88q0 -57 29 -89t71 -32z" />
    <glyph glyph-name="Ohungarumlaut" unicode="&#x150;" horiz-adv-x="802" 
d="M684 922l-206 -179l-74 70l178 208zM469 922l-207 -179l-73 70l178 208zM401 711q150 0 259.5 -100.5t109.5 -260.5t-109 -260.5t-260 -100.5q-150 0 -259.5 100.5t-109.5 260.5t109.5 260.5t259.5 100.5zM401 556q-77 0 -133 -56t-56 -150t56 -150t133 -56t132 56
t55 150t-55 150t-132 56z" />
    <glyph glyph-name="ohungarumlaut" unicode="&#x151;" horiz-adv-x="577" 
d="M572 716l-206 -179l-74 70l178 208zM357 716l-207 -179l-73 70l178 208zM288 -11q-111 0 -186.5 73.5t-75.5 185.5t75.5 185t186.5 73q112 0 187.5 -73t75.5 -185t-75.5 -185.5t-187.5 -73.5zM288 127q43 0 72 32t29 89q0 56 -29.5 88t-71.5 32q-41 0 -70.5 -32
t-29.5 -88q0 -57 29 -89t71 -32z" />
    <glyph glyph-name="OE" unicode="&#x152;" horiz-adv-x="1105" 
d="M402 556q-77 0 -133 -56t-56 -150t56 -150t133 -56t132 56t55 150t-55 150t-132 56zM586 0v67q-34 -35 -87.5 -56.5t-115.5 -21.5q-146 0 -248 100t-102 261t102 261t248 100q127 0 203 -79v68h476v-146h-300v-129h237v-142h-237v-137h309v-146h-485z" />
    <glyph glyph-name="oe" unicode="&#x153;" horiz-adv-x="929" 
d="M653 -11q-111 0 -184 68q-73 -68 -181 -68q-111 0 -186.5 73.5t-75.5 185.5t75.5 185t186.5 73q108 0 182 -68q73 68 178 68q113 0 185.5 -74.5t72.5 -193.5v-23h-349q8 -44 35 -67.5t65 -23.5q63 0 90 54l148 -40q-27 -72 -91 -110.5t-151 -38.5zM652 384q-33 0 -58 -21
t-34 -61h182q-8 38 -32 60t-58 22zM288 127q43 0 72 32t29 89q0 56 -29.5 88t-71.5 32q-41 0 -70.5 -32t-29.5 -88q0 -57 29 -89t71 -32z" />
    <glyph glyph-name="Racute" unicode="&#x154;" horiz-adv-x="676" 
d="M496 846l-257 -111l-54 88l238 148zM331 560h-86v-171h86q51 0 77 25t26 60t-26 60.5t-77 25.5zM245 267v-267h-175v700h305q103 0 174 -57t71 -162q0 -68 -38 -117.5t-99 -74.5l186 -289h-201l-160 267h-63z" />
    <glyph glyph-name="racute" unicode="&#x155;" horiz-adv-x="381" 
d="M368 640l-257 -111l-54 88l238 148zM52 0v494h156v-78q21 47 57.5 68.5t75.5 21.5q16 0 36 -4l-28 -175q-22 9 -47 9q-39 0 -64.5 -26.5t-25.5 -83.5v-226h-160z" />
    <glyph glyph-name="Rcommaaccent" unicode="&#x156;" horiz-adv-x="676" 
d="M331 560h-86v-171h86q51 0 77 25t26 60t-26 60.5t-77 25.5zM245 267v-267h-175v700h305q103 0 174 -57t71 -162q0 -68 -38 -117.5t-99 -74.5l186 -289h-201l-160 267h-63zM328 -306h-77v73h39q31 0 31 31v18h-70v139h174v-171q0 -90 -97 -90z" />
    <glyph glyph-name="rcommaaccent" unicode="&#x157;" horiz-adv-x="381" 
d="M52 0v494h156v-78q21 47 57.5 68.5t75.5 21.5q16 0 36 -4l-28 -175q-22 9 -47 9q-39 0 -64.5 -26.5t-25.5 -83.5v-226h-160zM123 -306h-77v73h39q31 0 31 31v18h-70v139h174v-171q0 -90 -97 -90z" />
    <glyph glyph-name="Rcaron" unicode="&#x158;" horiz-adv-x="676" 
d="M385 943h133l-111 -179h-147l-110 179h131l52 -63zM331 560h-86v-171h86q51 0 77 25t26 60t-26 60.5t-77 25.5zM245 267v-267h-175v700h305q103 0 174 -57t71 -162q0 -68 -38 -117.5t-99 -74.5l186 -289h-201l-160 267h-63z" />
    <glyph glyph-name="rcaron" unicode="&#x159;" horiz-adv-x="382" 
d="M258 737h133l-111 -179h-147l-110 179h131l52 -63zM53 0v494h156v-78q21 47 57.5 68.5t75.5 21.5q16 0 36 -4l-28 -175q-22 9 -47 9q-39 0 -64.5 -26.5t-25.5 -83.5v-226h-160z" />
    <glyph glyph-name="Sacute" unicode="&#x15a;" horiz-adv-x="613" 
d="M466 846l-257 -111l-54 88l238 148zM227 510q0 -23 16.5 -37.5t56.5 -27.5l88 -28q94 -30 144 -76t50 -131q0 -94 -75 -157.5t-199 -63.5q-99 0 -176.5 40t-108.5 111l150 72q15 -35 52.5 -57t80.5 -22q42 0 66 17t24 42q0 11 -3 19.5t-12 16.5t-15 12.5t-23.5 11
t-24.5 8.5t-31 10l-74 23q-170 54 -170 206q0 87 73 149.5t192 62.5q88 0 156.5 -33.5t107.5 -93.5l-137 -84q-18 29 -53 48t-72 19q-39 0 -61 -17t-22 -40z" />
    <glyph glyph-name="sacute" unicode="&#x15b;" horiz-adv-x="490" 
d="M400 640l-257 -111l-54 88l238 148zM20 108l124 58q12 -25 39 -43t63 -18q27 0 42 10.5t15 24.5q0 26 -49 37l-79 18q-140 31 -140 147q0 70 60 116.5t151 46.5q75 -1 131.5 -29t82.5 -80l-125 -57q-12 22 -35 36t-51 14q-24 0 -39 -9.5t-15 -22.5q0 -28 43 -37l69 -15
q78 -17 116.5 -53t38.5 -97q0 -69 -59.5 -117.5t-156.5 -48.5q-89 0 -147.5 34t-78.5 85z" />
    <glyph glyph-name="Scircumflex" unicode="&#x15c;" horiz-adv-x="613" 
d="M355 764l-52 63l-52 -63h-132l111 179h147l111 -179h-133zM227 510q0 -23 16.5 -37.5t56.5 -27.5l88 -28q94 -30 144 -76t50 -131q0 -94 -75 -157.5t-199 -63.5q-99 0 -176.5 40t-108.5 111l150 72q15 -35 52.5 -57t80.5 -22q42 0 66 17t24 42q0 11 -3 19.5t-12 16.5
t-15 12.5t-23.5 11t-24.5 8.5t-31 10l-74 23q-170 54 -170 206q0 87 73 149.5t192 62.5q88 0 156.5 -33.5t107.5 -93.5l-137 -84q-18 29 -53 48t-72 19q-39 0 -61 -17t-22 -40z" />
    <glyph glyph-name="scircumflex" unicode="&#x15d;" horiz-adv-x="490" 
d="M289 558l-52 63l-52 -63h-132l111 179h147l111 -179h-133zM20 108l124 58q12 -25 39 -43t63 -18q27 0 42 10.5t15 24.5q0 26 -49 37l-79 18q-140 31 -140 147q0 70 60 116.5t151 46.5q75 -1 131.5 -29t82.5 -80l-125 -57q-12 22 -35 36t-51 14q-24 0 -39 -9.5t-15 -22.5
q0 -28 43 -37l69 -15q78 -17 116.5 -53t38.5 -97q0 -69 -59.5 -117.5t-156.5 -48.5q-89 0 -147.5 34t-78.5 85z" />
    <glyph glyph-name="Scedilla" unicode="&#x15e;" horiz-adv-x="614" 
d="M307 -142h-140l71 137q-76 12 -133 50t-82 95l150 72q15 -35 52.5 -57t80.5 -22q42 0 66 17t24 42q0 11 -3 19.5t-12 16.5t-15 12.5t-23.5 11t-24.5 8.5t-31 10l-74 23q-170 54 -170 206q0 87 73 149.5t192 62.5q88 0 156.5 -33.5t107.5 -93.5l-137 -84q-18 29 -53 48
t-72 19q-39 0 -61 -17t-22 -40t16.5 -37.5t56.5 -27.5l88 -28q94 -30 144 -76t50 -131q0 -74 -48.5 -131t-133.5 -79z" />
    <glyph glyph-name="scedilla" unicode="&#x15f;" horiz-adv-x="491" 
d="M247 -142h-140l72 137q-62 11 -103 42t-56 71l124 58q12 -25 39 -43t63 -18q27 0 42 10.5t15 24.5q0 26 -49 37l-79 18q-140 31 -140 147q0 70 60 116.5t151 46.5q75 -1 131.5 -29t82.5 -80l-125 -57q-12 22 -35 36t-51 14q-24 0 -39 -9.5t-15 -22.5q0 -28 43 -37l69 -15
q78 -17 116.5 -53t38.5 -97q0 -49 -31.5 -89.5t-87.5 -60.5z" />
    <glyph glyph-name="Scaron" unicode="&#x160;" horiz-adv-x="613" 
d="M355 943h133l-111 -179h-147l-110 179h131l52 -63zM227 510q0 -23 16.5 -37.5t56.5 -27.5l88 -28q94 -30 144 -76t50 -131q0 -94 -75 -157.5t-199 -63.5q-99 0 -176.5 40t-108.5 111l150 72q15 -35 52.5 -57t80.5 -22q42 0 66 17t24 42q0 11 -3 19.5t-12 16.5t-15 12.5
t-23.5 11t-24.5 8.5t-31 10l-74 23q-170 54 -170 206q0 87 73 149.5t192 62.5q88 0 156.5 -33.5t107.5 -93.5l-137 -84q-18 29 -53 48t-72 19q-39 0 -61 -17t-22 -40z" />
    <glyph glyph-name="scaron" unicode="&#x161;" horiz-adv-x="490" 
d="M289 737h133l-111 -179h-147l-110 179h131l52 -63zM20 108l124 58q12 -25 39 -43t63 -18q27 0 42 10.5t15 24.5q0 26 -49 37l-79 18q-140 31 -140 147q0 70 60 116.5t151 46.5q75 -1 131.5 -29t82.5 -80l-125 -57q-12 22 -35 36t-51 14q-24 0 -39 -9.5t-15 -22.5
q0 -28 43 -37l69 -15q78 -17 116.5 -53t38.5 -97q0 -69 -59.5 -117.5t-156.5 -48.5q-89 0 -147.5 34t-78.5 85z" />
    <glyph glyph-name="Tcommaaccent" unicode="&#x162;" horiz-adv-x="642" 
d="M628 554h-219v-554h-175v554h-220v146h614v-146zM311 -306h-77v73h39q31 0 31 31v18h-70v139h174v-171q0 -90 -97 -90z" />
    <glyph glyph-name="tcommaaccent" unicode="&#x163;" horiz-adv-x="402" 
d="M259 -11q-77 0 -123.5 38t-46.5 112v232h-72v123h72v206h160v-206h130v-123h-130v-198q0 -20 13 -34.5t39 -14.5q30 0 70 17v-130q-58 -22 -112 -22zM213 -306h-77v73h39q31 0 31 31v18h-70v139h174v-171q0 -90 -97 -90z" />
    <glyph glyph-name="Tcaron" unicode="&#x164;" horiz-adv-x="642" 
d="M369 943h133l-111 -179h-147l-110 179h131l52 -63zM628 554h-219v-554h-175v554h-220v146h614v-146z" />
    <glyph glyph-name="tcaron" unicode="&#x165;" horiz-adv-x="402" 
d="M387 567h-68v73h30q30 0 30 31v20h-60v165h165v-199q0 -90 -97 -90zM259 -11q-77 0 -123.5 38t-46.5 112v232h-72v123h72v206h160v-206h130v-123h-130v-198q0 -20 13 -34.5t39 -14.5q30 0 70 17v-129q-58 -23 -112 -23z" />
    <glyph glyph-name="Tbar" unicode="&#x166;" horiz-adv-x="650" 
d="M523 263h-110v-263h-175v263h-110v114h110v177h-220v146h614v-146h-219v-177h110v-114z" />
    <glyph glyph-name="tbar" unicode="&#x167;" horiz-adv-x="404" 
d="M372 11q-58 -22 -112 -22q-77 0 -123.5 38t-46.5 112v83h-72v91h72v58h-72v123h72v206h160v-206h130v-123h-130v-58h130v-91h-130v-49q0 -20 13 -34.5t39 -14.5q30 0 70 17v-130z" />
    <glyph glyph-name="Utilde" unicode="&#x168;" horiz-adv-x="720" 
d="M295 803q-26 0 -29 -29h-87q0 73 28 111.5t80 38.5q24 0 77 -16.5t64 -16.5q26 0 30 29h86q0 -73 -28 -111.5t-80 -38.5q-24 0 -76.5 16.5t-64.5 16.5zM359 -11q-134 0 -215 74.5t-81 201.5v435h175v-428q0 -62 36.5 -95t90.5 -33q52 0 88 33t36 95v428h168v-435
q0 -127 -81.5 -201.5t-216.5 -74.5z" />
    <glyph glyph-name="utilde" unicode="&#x169;" horiz-adv-x="549" 
d="M212 597q-26 0 -29 -29h-87q0 73 28 111.5t80 38.5q24 0 77 -16.5t64 -16.5q26 0 30 29h86q0 -73 -28 -111.5t-80 -38.5q-24 0 -76.5 16.5t-64.5 16.5zM277 125q33 0 51 20.5t18 53.5v295h156v-301q0 -92 -60 -148t-165 -56q-107 0 -168.5 56t-61.5 148v301h160v-295
q0 -33 18 -53.5t52 -20.5z" />
    <glyph glyph-name="Umacron" unicode="&#x16a;" horiz-adv-x="720" 
d="M196 774v111h333v-111h-333zM359 -11q-134 0 -215 74.5t-81 201.5v435h175v-428q0 -62 36.5 -95t90.5 -33q52 0 88 33t36 95v428h168v-435q0 -127 -81.5 -201.5t-216.5 -74.5z" />
    <glyph glyph-name="umacron" unicode="&#x16b;" horiz-adv-x="549" 
d="M108 568v111h333v-111h-333zM277 125q33 0 51 20.5t18 53.5v295h156v-301q0 -92 -60 -148t-165 -56q-107 0 -168.5 56t-61.5 148v301h160v-295q0 -33 18 -53.5t52 -20.5z" />
    <glyph glyph-name="Ubreve" unicode="&#x16c;" horiz-adv-x="720" 
d="M198 925h111v-15q0 -24 14.5 -36t37.5 -12q52 0 52 48v15h112v-40q0 -59 -44 -96.5t-120 -37.5q-77 0 -120 37.5t-43 96.5v40zM359 -11q-134 0 -215 74.5t-81 201.5v435h175v-428q0 -62 36.5 -95t90.5 -33q52 0 88 33t36 95v428h168v-435q0 -127 -81.5 -201.5
t-216.5 -74.5z" />
    <glyph glyph-name="ubreve" unicode="&#x16d;" horiz-adv-x="549" 
d="M110 719h111v-15q0 -24 14.5 -36t37.5 -12q52 0 52 48v15h112v-40q0 -59 -44 -96.5t-120 -37.5q-77 0 -120 37.5t-43 96.5v40zM277 125q33 0 51 20.5t18 53.5v295h156v-301q0 -92 -60 -148t-165 -56q-107 0 -168.5 56t-61.5 148v301h160v-295q0 -33 18 -53.5t52 -20.5z
" />
    <glyph glyph-name="Uring" unicode="&#x16e;" horiz-adv-x="720" 
d="M212 872q0 60 43.5 102t106.5 42t106 -42t43 -102t-43 -102t-106 -42t-106.5 42t-43.5 102zM304 872q0 -25 16.5 -42t41.5 -17t41 17t16 42q0 26 -16 42.5t-41 16.5t-41.5 -16.5t-16.5 -42.5zM359 -11q-134 0 -215 74.5t-81 201.5v435h175v-428q0 -62 36.5 -95t90.5 -33
q52 0 88 33t36 95v428h168v-435q0 -127 -81.5 -201.5t-216.5 -74.5z" />
    <glyph glyph-name="uring" unicode="&#x16f;" horiz-adv-x="549" 
d="M124 665q0 60 43.5 102t106.5 42t106 -42t43 -102t-43 -102t-106 -42t-106.5 42t-43.5 102zM216 665q0 -25 16.5 -42t41.5 -17t41 17t16 42q0 26 -16 42.5t-41 16.5t-41.5 -16.5t-16.5 -42.5zM277 125q33 0 51 20.5t18 53.5v295h156v-301q0 -92 -60 -148t-165 -56
q-107 0 -168.5 56t-61.5 148v301h160v-295q0 -33 18 -53.5t52 -20.5z" />
    <glyph glyph-name="Uhungarumlaut" unicode="&#x170;" horiz-adv-x="720" 
d="M645 922l-206 -179l-74 70l178 208zM430 922l-207 -179l-73 70l178 208zM359 -11q-134 0 -215 74.5t-81 201.5v435h175v-428q0 -62 36.5 -95t90.5 -33q52 0 88 33t36 95v428h168v-435q0 -127 -81.5 -201.5t-216.5 -74.5z" />
    <glyph glyph-name="uhungarumlaut" unicode="&#x171;" horiz-adv-x="549" 
d="M557 716l-206 -179l-74 70l178 208zM342 716l-207 -179l-73 70l178 208zM277 125q33 0 51 20.5t18 53.5v295h156v-301q0 -92 -60 -148t-165 -56q-107 0 -168.5 56t-61.5 148v301h160v-295q0 -33 18 -53.5t52 -20.5z" />
    <glyph glyph-name="Uogonek" unicode="&#x172;" horiz-adv-x="720" 
d="M418 -207q-50 0 -82.5 22.5t-32.5 67.5q0 51 55 106q-134 0 -214.5 74.5t-80.5 201.5v435h175v-428q0 -62 36.5 -95t90.5 -33q52 0 88 33t36 95v428h168v-435q0 -96 -48 -163.5t-133 -95.5q-42 -62 -42 -88q0 -30 39 -30q8 0 26 2v-87q-46 -10 -81 -10z" />
    <glyph glyph-name="uogonek" unicode="&#x173;" horiz-adv-x="549" 
d="M334 -207q-50 0 -82.5 22.5t-32.5 67.5q0 51 55 106q-105 1 -166 57t-61 147v301h160v-295q0 -33 18 -53.5t52 -20.5q33 0 51 20.5t18 53.5v295h156v-301q0 -127 -105 -179q-47 -68 -47 -96q0 -30 39 -30q8 0 26 2v-87q-46 -10 -81 -10z" />
    <glyph glyph-name="Wcircumflex" unicode="&#x174;" horiz-adv-x="1051" 
d="M573 764l-52 63l-52 -63h-132l111 179h147l111 -179h-133zM631 0l-108 434l-102 -434h-214l-197 700h192l116 -473l114 473h190l114 -473l116 473h189l-197 -700h-213z" />
    <glyph glyph-name="wcircumflex" unicode="&#x175;" horiz-adv-x="806" 
d="M450 558l-52 63l-52 -63h-132l111 179h147l111 -179h-133zM154 0l-141 494h171l71 -307l79 307h151l81 -308l69 308h155l-134 -494h-180l-72 283l-71 -283h-179z" />
    <glyph glyph-name="Ycircumflex" unicode="&#x176;" horiz-adv-x="685" 
d="M391 764l-52 63l-52 -63h-132l111 179h147l111 -179h-133zM430 0h-175v276l-256 424h206l146 -250l137 250h199l-257 -426v-274z" />
    <glyph glyph-name="ycircumflex" unicode="&#x177;" horiz-adv-x="554" 
d="M325 558l-52 63l-52 -63h-132l111 179h147l111 -179h-133zM156 -205q-59 0 -103.5 29t-59.5 75l118 57q9 -29 39 -29q33 0 45 37l13 36h-18l-183 494h182l97 -317l93 317h169l-200 -556q-26 -71 -76 -107t-116 -36z" />
    <glyph glyph-name="Ydieresis" unicode="&#x178;" horiz-adv-x="685" 
d="M364 761v148h158v-148h-158zM163 761v148h158v-148h-158zM430 0h-175v276l-256 424h206l146 -250l137 250h199l-257 -426v-274z" />
    <glyph glyph-name="Zacute" unicode="&#x179;" horiz-adv-x="657" 
d="M488 846l-257 -111l-54 88l238 148zM35 0v137l338 417h-329v146h559v-137l-339 -417h364v-146h-593z" />
    <glyph glyph-name="zacute" unicode="&#x17a;" horiz-adv-x="503" 
d="M410 640l-257 -111l-54 88l238 148zM29 0v111l221 260h-208v123h418v-111l-221 -260h236v-123h-446z" />
    <glyph glyph-name="Zdotaccent" unicode="&#x17b;" horiz-adv-x="657" 
d="M236 764v157h180v-157h-180zM35 0v137l338 417h-329v146h559v-137l-339 -417h364v-146h-593z" />
    <glyph glyph-name="zdotaccent" unicode="&#x17c;" horiz-adv-x="503" 
d="M158 558v157h180v-157h-180zM29 0v111l221 260h-208v123h418v-111l-221 -260h236v-123h-446z" />
    <glyph glyph-name="Zcaron" unicode="&#x17d;" horiz-adv-x="657" 
d="M377 943h133l-111 -179h-147l-110 179h131l52 -63zM35 0v137l338 417h-329v146h559v-137l-339 -417h364v-146h-593z" />
    <glyph glyph-name="zcaron" unicode="&#x17e;" horiz-adv-x="503" 
d="M299 737h133l-111 -179h-147l-110 179h131l52 -63zM29 0v111l221 260h-208v123h418v-111l-221 -260h236v-123h-446z" />
    <glyph glyph-name="longs" unicode="&#x17f;" horiz-adv-x="335" 
d="M262 536v-536h-160v371h-85v123h85v58q0 86 50 129.5t127 43.5q43 0 99 -18v-139q-27 21 -64 21q-23 0 -37.5 -14t-14.5 -39z" />
    <glyph glyph-name="florin" unicode="&#x192;" horiz-adv-x="496" 
d="M432 371h-120l-65 -371h-161l66 371h-111l22 123h111l9 53q31 179 191 179q55 0 112 -19l-24 -139q-24 21 -60 21q-23 0 -39.5 -14t-20.5 -39l-8 -42h120z" />
    <glyph glyph-name="Scommaaccent" unicode="&#x218;" horiz-adv-x="613" 
d="M227 510q0 -23 16.5 -37.5t56.5 -27.5l88 -28q94 -30 144 -76t50 -131q0 -94 -75 -157.5t-199 -63.5q-99 0 -176.5 40t-108.5 111l150 72q15 -35 52.5 -57t80.5 -22q42 0 66 17t24 42q0 11 -3 19.5t-12 16.5t-15 12.5t-23.5 11t-24.5 8.5t-31 10l-74 23q-170 54 -170 206
q0 87 73 149.5t192 62.5q88 0 156.5 -33.5t107.5 -93.5l-137 -84q-18 29 -53 48t-72 19q-39 0 -61 -17t-22 -40zM303 -306h-77v73h39q31 0 31 31v18h-70v139h174v-171q0 -90 -97 -90z" />
    <glyph glyph-name="scommaaccent" unicode="&#x219;" horiz-adv-x="490" 
d="M20 108l124 58q12 -25 39 -43t63 -18q27 0 42 10.5t15 24.5q0 26 -49 37l-79 18q-140 31 -140 147q0 70 60 116.5t151 46.5q75 -1 131.5 -29t82.5 -80l-125 -57q-12 22 -35 36t-51 14q-24 0 -39 -9.5t-15 -22.5q0 -28 43 -37l69 -15q78 -17 116.5 -53t38.5 -97
q0 -69 -59.5 -117.5t-156.5 -48.5q-89 0 -147.5 34t-78.5 85zM240 -306h-77v73h39q31 0 31 31v18h-70v139h174v-171q0 -90 -97 -90z" />
    <glyph glyph-name="uni021A" unicode="&#x21a;" horiz-adv-x="642" 
d="M628 554h-219v-554h-175v554h-220v146h614v-146zM312 -306h-78v73h39q31 0 31 31v18h-70v139h175v-171q0 -90 -97 -90z" />
    <glyph glyph-name="uni021B" unicode="&#x21b;" horiz-adv-x="402" 
d="M259 -11q-77 0 -123.5 38t-46.5 112v232h-72v123h72v206h160v-206h130v-123h-130v-198q0 -20 13 -34.5t39 -14.5q30 0 70 17v-130q-58 -22 -112 -22zM213 -306h-77v73h39q31 0 31 31v18h-70v139h174v-171q0 -90 -97 -90z" />
    <glyph glyph-name="dotlessj" unicode="&#x237;" horiz-adv-x="264" 
d="M-147 -81l127 43q2 -12 12.5 -20.5t23.5 -8.5q15 0 25.5 10.5t10.5 32.5v518h160v-510q0 -92 -54.5 -140.5t-130.5 -48.5q-65 0 -114 33.5t-60 90.5z" />
    <glyph glyph-name="apostrophemod" unicode="&#x2bc;" horiz-adv-x="481" 
d="M231 411h-69v73h30q31 0 31 31v20h-61v165h165v-199q0 -90 -96 -90z" />
    <glyph glyph-name="circumflex" unicode="&#x2c6;" horiz-adv-x="402" 
d="M249 558l-52 63l-52 -63h-132l111 179h147l111 -179h-133z" />
    <glyph glyph-name="caron" unicode="&#x2c7;" horiz-adv-x="402" 
d="M249 737h133l-111 -179h-147l-110 179h131l52 -63z" />
    <glyph glyph-name="breve" unicode="&#x2d8;" horiz-adv-x="415" 
d="M44 719h111v-15q0 -24 14.5 -36t37.5 -12q52 0 52 48v15h112v-40q0 -59 -44 -96.5t-120 -37.5q-77 0 -120 37.5t-43 96.5v40z" />
    <glyph glyph-name="dotaccent" unicode="&#x2d9;" horiz-adv-x="382" 
d="M101 558v157h180v-157h-180z" />
    <glyph glyph-name="ring" unicode="&#x2da;" horiz-adv-x="390" 
d="M45 663q0 60 43.5 102t106.5 42t106 -42t43 -102t-43 -102t-106 -42t-106.5 42t-43.5 102zM137 663q0 -25 16.5 -42t41.5 -17t41 17t16 42q0 26 -16 42.5t-41 16.5t-41.5 -16.5t-16.5 -42.5z" />
    <glyph glyph-name="ogonek" unicode="&#x2db;" horiz-adv-x="402" 
d="M289 -199q-46 -10 -81 -10q-50 0 -82.5 22.5t-32.5 67.5q0 43 38 87.5t90 71.5l52 -20v-5q-49 -71 -49 -99q0 -30 39 -30q8 0 26 2v-87z" />
    <glyph glyph-name="tilde" unicode="&#x2dc;" horiz-adv-x="412" 
d="M139 597q-26 0 -29 -29h-87q0 73 28 111.5t80 38.5q24 0 77 -16.5t64 -16.5q26 0 30 29h86q0 -73 -28 -111.5t-80 -38.5q-24 0 -76.5 16.5t-64.5 16.5z" />
    <glyph glyph-name="hungarumlaut" unicode="&#x2dd;" horiz-adv-x="397" 
d="M482 716l-206 -179l-74 70l178 208zM267 716l-207 -179l-73 70l178 208z" />
    <glyph glyph-name="mu" unicode="&#x3bc;" horiz-adv-x="670" 
d="M341 -11q-113 0 -176 63v-189h-54v631h160v-295q0 -33 18 -53.5t52 -20.5q33 0 51 20.5t18 53.5v295h156v-301q0 -92 -60 -148t-165 -56z" />
    <glyph glyph-name="pi" unicode="&#x3c0;" horiz-adv-x="656" 
d="M514 -11q-77 0 -124 38t-47 112v232h-75l-41 -371h-160l47 371h-89v123h589v-123h-111v-198q0 -20 13 -34.5t39 -14.5q31 0 71 17v-129q-58 -23 -112 -23z" />
    <glyph glyph-name="logo" unicode="&#x1265;" horiz-adv-x="1266" 
d="M632 -173q-8 0 -31 9q-91 37 -181.5 101.5t-168.5 147.5t-127 186.5t-49 204.5q0 75 27 145.5t75 119.5q95 93 234 93q125 0 227 -88q98 86 220 86q140 0 232 -94q48 -49 74.5 -118.5t26.5 -145.5q0 -83 -33.5 -168t-87.5 -155t-124 -133t-142 -108t-142 -74
q-21 -9 -30 -9zM622 -132q9 -4 20 0q118 51 245 151q105 83 173 181q93 138 93 275q0 147 -96 240q-84 81 -203 81q-123 0 -220 -87q-103 88 -223 88q-118 0 -200 -80q-97 -92 -97 -243q0 -137 92 -272q64 -93 173 -182q52 -40 111 -77.5t92 -55t40 -19.5zM425 496
q13 0 20 9q15 17 5 37l-64 161q-9 20 -28 12q-20 -8 -13 -28l34 -84l-96 -21q-20 -6 -17 -26q1 -9 9.5 -14t17.5 -3l102 23l8 -19q-7 -12 -7 -18q0 -12 8.5 -20.5t20.5 -8.5zM888 515q25 -9 57 7q19 9 30.5 27t11.5 38q0 15 -7 29q-3 7 -34 68q-4 8 -13 11t-16 -1l-136 -75
q-21 -11 -10 -29q4 -8 13.5 -11t16.5 2l25 14l24 -48q13 -24 38 -32zM485 623q15 0 25 11t10 26t-10 25t-25 10t-25 -10t-10 -25t10 -26t25 -11zM632 512q-45 0 -89 13q46 79 91 126q39 -43 89 -126q-42 -13 -91 -13zM926 560q-10 -6 -21 -4t-16 10l-26 50l55 30l23 -48
q5 -11 0 -21.5t-15 -16.5zM519 74h244q23 0 23 21q0 9 -6.5 15t-15.5 6h-168q165 88 165 190q0 50 -34 88.5t-94 38.5q-56 0 -95.5 -34t-39.5 -83q0 -40 25.5 -70t64.5 -30q32 0 57.5 19.5t25.5 55.5q0 27 -12.5 38t-26.5 11q-15 0 -26 -10.5t-11 -25.5q0 -17 17 -29
q0 -5 -6 -11t-18 -6q-21 0 -33 17.5t-12 41.5q0 31 24.5 53t62.5 22q40 0 62.5 -25.5t22.5 -59.5q0 -71 -110 -139q-19 -12 -84 -48l-15 -8q-12 -12 -7 -25q7 -13 20 -13zM937 299q20 7 12 27l-39 89q4 2 9 4t11 4.5t8 3.5l14 -30q4 -8 12 -11.5t16 0.5q19 9 11 28l-14 32
q8 4 25 12l31 -69q11 -21 29 -12q8 4 11.5 13t-0.5 16l-41 90q-5 9 -12 12q-9 2 -16 -1l-130 -63q-20 -9 -12 -28l48 -106q10 -21 27 -11zM214 348q21 -4 27 14l16 48l113 -40q22 -6 27 14q4 6 -0.5 14.5t-12.5 12.5l-113 40l14 45q5 16 -14 27q-8 1 -16.5 -3t-11.5 -11
l-43 -134q-5 -16 14 -27zM859 53q-110 -87 -227 -144q-113 53 -227 145q-102 81 -165 174q-83 122 -83 248q0 127 84 211q70 68 171 68q102 0 191 -75q-52 -56 -99 -136q-76 -130 -124 -320l-47 10q-7 1 -15 -3.5t-10 -11.5q0 -22 16 -25l137 -29q7 0 15 4.5t9 10.5
q2 9 -2.5 16.5t-12.5 8.5l-46 11q42 157 98 270q57 -19 110 -19q56 0 111 20q63 -125 97 -273q-5 -1 -45 -10q-19 -4 -17 -23q1 -7 9.5 -12t16.5 -5l136 28q20 4 16 25q-1 8 -9 13t-16 3l-46 -10v1q-47 186 -125 323q-46 83 -95 132q90 75 190 75q103 0 171 -69
q83 -81 83 -211q0 -129 -84 -248q-60 -90 -166 -173zM885 222l-3 1h3v-1zM632 -36q15 0 25 10.5t10 25.5t-10 25t-25 10q-16 0 -26 -10.5t-10 -24.5q0 -15 10.5 -25.5t25.5 -10.5z" />
    <glyph glyph-name="Wgrave" unicode="&#x1e80;" horiz-adv-x="1051" 
d="M361 846l73 125l238 -148l-55 -88zM631 0l-108 434l-102 -434h-214l-197 700h192l116 -473l114 473h190l114 -473l116 473h189l-197 -700h-213z" />
    <glyph glyph-name="wgrave" unicode="&#x1e81;" horiz-adv-x="806" 
d="M237 640l73 125l238 -148l-55 -88zM154 0l-141 494h171l71 -307l79 307h151l81 -308l69 308h155l-134 -494h-180l-72 283l-71 -283h-179z" />
    <glyph glyph-name="Wacute" unicode="&#x1e82;" horiz-adv-x="1051" 
d="M684 846l-257 -111l-54 88l238 148zM631 0l-108 434l-102 -434h-214l-197 700h192l116 -473l114 473h190l114 -473l116 473h189l-197 -700h-213z" />
    <glyph glyph-name="wacute" unicode="&#x1e83;" horiz-adv-x="806" 
d="M560 640l-257 -111l-54 88l238 148zM154 0l-141 494h171l71 -307l79 307h151l81 -308l69 308h155l-134 -494h-180l-72 283l-71 -283h-179z" />
    <glyph glyph-name="Wdieresis" unicode="&#x1e84;" horiz-adv-x="1051" 
d="M546 761v148h158v-148h-158zM345 761v148h158v-148h-158zM631 0l-108 434l-102 -434h-214l-197 700h192l116 -473l114 473h190l114 -473l116 473h189l-197 -700h-213z" />
    <glyph glyph-name="wdieresis" unicode="&#x1e85;" horiz-adv-x="806" 
d="M423 555v148h158v-148h-158zM222 555v148h158v-148h-158zM154 0l-141 494h171l71 -307l79 307h151l81 -308l69 308h155l-134 -494h-180l-72 283l-71 -283h-179z" />
    <glyph glyph-name="Ygrave" unicode="&#x1ef2;" horiz-adv-x="685" 
d="M179 846l73 125l238 -148l-55 -88zM430 0h-175v276l-256 424h206l146 -250l137 250h199l-257 -426v-274z" />
    <glyph glyph-name="ygrave" unicode="&#x1ef3;" horiz-adv-x="554" 
d="M113 640l73 125l238 -148l-55 -88zM156 -205q-59 0 -103.5 29t-59.5 75l118 57q9 -29 39 -29q33 0 45 37l13 36h-18l-183 494h182l97 -317l93 317h169l-200 -556q-26 -71 -76 -107t-116 -36z" />
    <glyph glyph-name="endash" unicode="&#x2013;" horiz-adv-x="641" 
d="M56 222v141h529v-141h-529z" />
    <glyph glyph-name="emdash" unicode="&#x2014;" horiz-adv-x="1040" 
d="M56 222v141h928v-141h-928z" />
    <glyph glyph-name="uni2015" unicode="&#x2015;" horiz-adv-x="1028" 
d="M50 0v141h928v-141h-928z" />
    <glyph glyph-name="quoteleft" unicode="&#x2018;" horiz-adv-x="282" 
d="M155 700h72v-77h-31q-32 0 -32 -32v-29h63v-174h-173v218q0 94 101 94z" />
    <glyph glyph-name="quoteright" unicode="&#x2019;" horiz-adv-x="276" 
d="M127 388h-72v77h31q32 0 32 32v29h-63v174h173v-218q0 -94 -101 -94z" />
    <glyph glyph-name="quotesinglbase" unicode="&#x201a;" horiz-adv-x="283" 
d="M127 -138h-72v77h31q32 0 32 32v29h-63v174h173v-218q0 -94 -101 -94z" />
    <glyph glyph-name="quotedblleft" unicode="&#x201c;" horiz-adv-x="498" 
d="M156 723h73v-77h-31q-32 0 -32 -33v-28h63v-175h-174v219q0 94 101 94zM371 723h73v-77h-32q-31 0 -31 -33v-28h63v-175h-174v219q0 94 101 94z" />
    <glyph glyph-name="quotedblright" unicode="&#x201d;" horiz-adv-x="492" 
d="M128 410h-73v77h32q31 0 31 32v29h-63v175h174v-219q0 -94 -101 -94zM343 410h-73v77h31q32 0 32 32v29h-63v175h174v-219q0 -94 -101 -94z" />
    <glyph glyph-name="quotedblbase" unicode="&#x201e;" horiz-adv-x="498" 
d="M342 -138h-73v77h32q31 0 31 32v29h-63v174h174v-218q0 -94 -101 -94zM127 -138h-72v77h31q32 0 32 32v29h-63v174h173v-218q0 -94 -101 -94z" />
    <glyph glyph-name="dagger" unicode="&#x2020;" horiz-adv-x="426" 
d="M393 430h-111v-258h-137v258h-112v112h112v158h137v-158h111v-112z" />
    <glyph glyph-name="daggerdbl" unicode="&#x2021;" horiz-adv-x="474" 
d="M310 146h-145v135h-117v111h117v63h-117v111h117v134h145v-134h116v-111h-116v-63h116v-111h-116v-135z" />
    <glyph glyph-name="bullet" unicode="&#x2022;" horiz-adv-x="398" 
d="M59 352q0 56 41 97t99 41t99 -41t41 -97q0 -58 -41 -99t-99 -41t-99 41t-41 99z" />
    <glyph glyph-name="ellipsis" unicode="&#x2026;" horiz-adv-x="829" 
d="M603 0v174h173v-174h-173zM328 0v174h173v-174h-173zM53 0v174h173v-174h-173z" />
    <glyph glyph-name="perthousand" unicode="&#x2030;" horiz-adv-x="1165" 
d="M376 537q0 -74 -46.5 -124t-125.5 -50t-126 50t-47 124q0 76 47 125.5t126 49.5t125.5 -49.5t46.5 -125.5zM192 0h-112l529 700h109zM131 537q0 -42 19.5 -64.5t53.5 -22.5t53.5 23t19.5 64q0 42 -20 65.5t-53 23.5t-53 -23.5t-20 -65.5zM768 162q0 -74 -46.5 -124
t-125.5 -50t-126 50t-47 124q0 76 47 125.5t126 49.5t125.5 -49.5t46.5 -125.5zM792 162q0 76 47 125.5t126 49.5t125.5 -49.5t46.5 -125.5q0 -74 -46.5 -124t-125.5 -50t-126 50t-47 124zM523 162q0 -42 19.5 -64.5t53.5 -22.5t53.5 23t19.5 64q0 42 -20 65.5t-53 23.5
t-53 -23.5t-20 -65.5zM1038 162q0 42 -20 65.5t-53 23.5t-53 -23.5t-20 -65.5t19.5 -64.5t53.5 -22.5t53.5 23t19.5 64z" />
    <glyph glyph-name="guilsinglleft" unicode="&#x2039;" horiz-adv-x="355" 
d="M249 -6l-217 198v123l217 198l77 -76l-135 -183v-2l135 -181z" />
    <glyph glyph-name="guilsinglright" unicode="&#x203a;" horiz-adv-x="355" 
d="M106 -6l-77 77l135 181v2l-135 183l77 76l217 -198v-123z" />
    <glyph glyph-name="fraction" unicode="&#x2044;" horiz-adv-x="224" 
d="M-104 0h-76l506 700h76z" />
    <glyph glyph-name="zerosuperior" unicode="&#x2070;" 
d="M364 643q0 -98 -45 -157.5t-124 -59.5q-80 0 -125.5 59.5t-45.5 157.5q0 99 45.5 157.5t125.5 58.5q79 0 124 -58.5t45 -157.5zM258 643q0 126 -63 126t-63 -126t63 -126t63 126z" />
    <glyph glyph-name="foursuperior" unicode="&#x2074;" 
d="M214 430v97h-208v73l189 250h119v-242h64v-81h-64v-97h-100zM214 608v151l-113 -151h113z" />
    <glyph glyph-name="fivesuperior" unicode="&#x2075;" 
d="M190 423q-69 0 -113.5 33t-52.5 80l102 24q4 -24 22 -37.5t41 -13.5q27 0 45 16t18 43q0 28 -19 44t-45 16q-33 0 -52 -21l-93 19l24 224h270v-85h-193l-9 -76q34 20 79 20q56 0 101 -35.5t45 -102.5q0 -62 -47.5 -105t-122.5 -43z" />
    <glyph glyph-name="sixsuperior" unicode="&#x2076;" 
d="M201 421q-76 0 -123.5 45t-47.5 107q0 63 36.5 127.5t115.5 147.5h120l-133 -151q28 13 59 13q57 0 98.5 -38.5t41.5 -105.5q0 -54 -44.5 -99.5t-122.5 -45.5zM199 631q-27 0 -46 -18t-19 -46q0 -26 19 -43.5t46 -17.5q28 0 47 17t19 44q0 28 -19 46t-47 18z" />
    <glyph glyph-name="sevensuperior" unicode="&#x2077;" 
d="M196 430h-115l161 335h-202v85h310v-72z" />
    <glyph glyph-name="eightsuperior" unicode="&#x2078;" 
d="M194 423q-79 0 -126 37.5t-47 90.5q0 72 77 104q-24 8 -42 31.5t-18 55.5q0 44 40.5 79t115.5 35q76 0 116.5 -35t40.5 -79q0 -32 -18 -55.5t-43 -31.5q77 -31 77 -104q0 -53 -47 -90.5t-126 -37.5zM139 733q0 -18 14.5 -31.5t40.5 -13.5t41 13.5t15 31.5q0 17 -15 29.5
t-41 12.5t-40.5 -12.5t-14.5 -29.5zM261 560q0 21 -18 37t-49 16q-30 0 -48 -16t-18 -37q0 -22 17.5 -38t48.5 -16t49 16t18 38z" />
    <glyph glyph-name="ninesuperior" unicode="&#x2079;" 
d="M86 430l133 151q-28 -13 -59 -13q-57 0 -98.5 39t-41.5 104q0 55 44.5 100.5t122.5 45.5q76 0 123.5 -45t47.5 -108q0 -64 -36.5 -127.5t-115.5 -146.5h-120zM189 646q27 0 46 18t19 46q0 27 -19 44.5t-46 17.5t-46.5 -17.5t-19.5 -44.5q0 -28 19.5 -46t46.5 -18z" />
    <glyph glyph-name="zeroinferior" unicode="&#x2080;" 
d="M364 58q0 -98 -45 -157.5t-124 -59.5q-80 0 -125.5 59.5t-45.5 157.5q0 99 45.5 157.5t125.5 58.5q79 0 124 -58.5t45 -157.5zM258 58q0 126 -63 126t-63 -126t63 -126t63 126z" />
    <glyph glyph-name="oneinferior" unicode="&#x2081;" 
d="M339 -150h-272v85h83v250h-89l18 85h176v-335h84v-85z" />
    <glyph glyph-name="twoinferior" unicode="&#x2082;" 
d="M352 -150h-317v79q121 84 165 124.5t44 76.5q0 28 -16.5 42.5t-37.5 14.5q-29 0 -42.5 -18t-13.5 -42q0 -18 3 -27h-98q-5 20 -5 38q0 57 42 98t119 41q72 0 113.5 -41t41.5 -98q0 -106 -171 -202h173v-86z" />
    <glyph glyph-name="threeinferior" unicode="&#x2083;" horiz-adv-x="389" 
d="M193 -159q-77 0 -124 40.5t-43 101.5l100 12q1 -35 21 -50t46 -15q23 0 41 12t18 36q0 23 -18.5 35t-45.5 12h-32v73h32q27 0 41 14t14 34q0 17 -14.5 30.5t-38.5 13.5q-27 0 -43.5 -15.5t-17.5 -40.5l-97 11q5 57 47.5 93t116.5 36q70 1 109.5 -34t39.5 -80
q0 -62 -57 -89q35 -11 52.5 -38.5t17.5 -61.5q0 -54 -44.5 -92t-120.5 -38z" />
    <glyph glyph-name="fourinferior" unicode="&#x2084;" 
d="M214 -150v97h-208v73l189 250h119v-242h64v-81h-64v-97h-100zM214 28v151l-113 -151h113z" />
    <glyph glyph-name="fiveinferior" unicode="&#x2085;" 
d="M190 -157q-69 0 -113.5 33t-52.5 80l102 24q4 -24 22 -37.5t41 -13.5q27 0 45 16t18 43q0 28 -19 44t-45 16q-33 0 -52 -21l-93 19l24 224h270v-85h-193l-9 -76q34 20 79 20q56 0 101 -35.5t45 -102.5q0 -62 -47.5 -105t-122.5 -43z" />
    <glyph glyph-name="sixinferior" unicode="&#x2086;" 
d="M201 -159q-76 0 -123.5 45t-47.5 107q0 63 36.5 127.5t115.5 147.5h120l-133 -151q28 13 59 13q57 0 98.5 -38.5t41.5 -105.5q0 -54 -44.5 -99.5t-122.5 -45.5zM199 51q-27 0 -46 -18t-19 -46q0 -26 19 -43.5t46 -17.5q28 0 47 17t19 44q0 28 -19 46t-47 18z" />
    <glyph glyph-name="seveninferior" unicode="&#x2087;" 
d="M196 -150h-115l161 335h-202v85h310v-72z" />
    <glyph glyph-name="eightinferior" unicode="&#x2088;" 
d="M194 -159q-79 0 -126 37.5t-47 90.5q0 72 77 104q-24 8 -42 31.5t-18 55.5q0 44 40.5 79t115.5 35q76 0 116.5 -35t40.5 -79q0 -32 -18 -55.5t-43 -31.5q77 -31 77 -104q0 -53 -47 -90.5t-126 -37.5zM139 151q0 -18 14.5 -31.5t40.5 -13.5t41 13.5t15 31.5q0 17 -15 29.5
t-41 12.5t-40.5 -12.5t-14.5 -29.5zM261 -22q0 21 -18 37t-49 16q-30 0 -48 -16t-18 -37q0 -22 17.5 -38t48.5 -16t49 16t18 38z" />
    <glyph glyph-name="nineinferior" unicode="&#x2089;" 
d="M86 -150l133 151q-28 -13 -59 -13q-57 0 -98.5 39t-41.5 104q0 55 44.5 100.5t122.5 45.5q76 0 123.5 -45t47.5 -108q0 -64 -36.5 -127.5t-115.5 -146.5h-120zM189 66q27 0 46 18t19 46q0 27 -19 44.5t-46 17.5t-46.5 -17.5t-19.5 -44.5q0 -28 19.5 -46t46.5 -18z" />
    <glyph glyph-name="Euro" unicode="&#x20ac;" horiz-adv-x="729" 
d="M697 89q-105 -100 -256 -100q-127 0 -224.5 72t-127.5 195h-58v67h48q-1 9 -1 27t1 27h-48v67h58q30 123 127.5 195t224.5 72q151 0 256 -100l-110 -119q-53 64 -139 64q-55 0 -101.5 -29.5t-69.5 -82.5h277v-67h-295q-1 -9 -1 -27t1 -27h295v-67h-277q23 -53 69.5 -82.5
t101.5 -29.5q84 0 139 64z" />
    <glyph glyph-name="litre" unicode="&#x2113;" horiz-adv-x="401" 
d="M233 -13q-70 0 -114 40.5t-44 113.5v93q-1 -1 -41 -23l-21 41q7 4 33 18t29 16v257q0 82 46.5 126.5t120.5 44.5q65 0 104 -40.5t39 -104.5q0 -74 -35 -140.5t-99 -114.5v-193q0 -20 12 -32t29 -12t29 12t12 33v5h49v-9q0 -61 -42 -96t-107 -35zM250 587v-213
q81 86 81 193q0 69 -44 69q-15 0 -26 -12.5t-11 -36.5z" />
    <glyph glyph-name="trademark" unicode="&#x2122;" horiz-adv-x="983" 
d="M267 597v-314h-113v314h-122v103h357v-103h-122zM727 355h-98l-77 202v-274h-110v417h165l72 -197l76 197h161v-417h-110v274z" />
    <glyph glyph-name="estimated" unicode="&#x212e;" horiz-adv-x="834" 
d="M179 332v-172q0 -40 45.5 -73.5t101.5 -50t100 -16.5q79 0 148.5 28.5t116.5 82.5h47q-114 -142 -312 -142q-163 0 -279 106.5t-116 257.5q0 149 115 254t280 105q178 0 287.5 -105.5t109.5 -262.5h-635q-9 0 -9 -12zM188 375h477q9 0 9 9v168q0 41 -45 72t-99.5 44.5
t-103.5 13.5q-45 0 -99.5 -13.5t-101 -44.5t-46.5 -72v-168q0 -9 9 -9z" />
    <glyph glyph-name="onethird" unicode="&#x2153;" horiz-adv-x="1000" 
d="M355 280h-272v85h83v250h-89l18 85h176v-335h84v-85zM292 0h-76l506 700h76zM764 -9q-77 0 -124 40.5t-43 101.5l100 12q1 -35 21 -50t46 -15q23 0 41 12t18 36q0 23 -18.5 35t-45.5 12h-32v73h32q27 0 41 14t14 34q0 17 -14.5 30.5t-38.5 13.5q-27 0 -43.5 -15.5
t-17.5 -40.5l-97 11q5 57 47.5 93t116.5 36q70 1 109.5 -34t39.5 -80q0 -62 -57 -89q35 -11 52.5 -38.5t17.5 -61.5q0 -54 -44.5 -92t-120.5 -38z" />
    <glyph glyph-name="twothirds" unicode="&#x2154;" horiz-adv-x="1000" 
d="M393 280h-317v79q121 84 165 124.5t44 76.5q0 28 -16.5 42.5t-37.5 14.5q-29 0 -42.5 -18t-13.5 -42q0 -18 3 -27h-98q-5 20 -5 38q0 57 42 98t119 41q72 0 113.5 -41t41.5 -98q0 -106 -171 -202h173v-86zM297 0h-76l506 700h76zM769 -9q-77 0 -124 40.5t-43 101.5
l100 12q1 -35 21 -50t46 -15q23 0 41 12t18 36q0 23 -18.5 35t-45.5 12h-32v73h32q27 0 41 14t14 34q0 17 -14.5 30.5t-38.5 13.5q-27 0 -43.5 -15.5t-17.5 -40.5l-97 11q5 57 47.5 93t116.5 36q70 1 109.5 -34t39.5 -80q0 -62 -57 -89q35 -11 52.5 -38.5t17.5 -61.5
q0 -54 -44.5 -92t-120.5 -38z" />
    <glyph glyph-name="oneeight" unicode="&#x215b;" horiz-adv-x="1000" 
d="M348 280h-272v85h83v250h-89l18 85h176v-335h84v-85zM285 0h-76l506 700h76zM764 -9q-79 0 -126 37.5t-47 90.5q0 72 77 104q-24 8 -42 31.5t-18 55.5q0 44 40.5 79t115.5 35q76 0 116.5 -35t40.5 -79q0 -32 -18 -55.5t-43 -31.5q77 -31 77 -104q0 -53 -47 -90.5
t-126 -37.5zM709 301q0 -18 14.5 -31.5t40.5 -13.5t41 13.5t15 31.5q0 17 -15 29.5t-41 12.5t-40.5 -12.5t-14.5 -29.5zM831 128q0 21 -18 37t-49 16q-30 0 -48 -16t-18 -37q0 -22 17.5 -38t48.5 -16t49 16t18 38z" />
    <glyph glyph-name="threeeights" unicode="&#x215c;" horiz-adv-x="1001" 
d="M284 0h-76l506 700h76zM239 273q-77 0 -124 40.5t-43 101.5l100 12q1 -35 21 -50t46 -15q23 0 41 12t18 36q0 23 -18.5 35t-45.5 12h-32v73h32q27 0 41 14t14 34q0 17 -14.5 30.5t-38.5 13.5q-27 0 -43.5 -15.5t-17.5 -40.5l-97 11q5 57 47.5 93t116.5 36q70 1 109.5 -34
t39.5 -80q0 -62 -57 -89q35 -11 52.5 -38.5t17.5 -61.5q0 -54 -44.5 -92t-120.5 -38zM759 -9q-79 0 -126 37.5t-47 90.5q0 72 77 104q-24 8 -42 31.5t-18 55.5q0 44 40.5 79t115.5 35q76 0 116.5 -35t40.5 -79q0 -32 -18 -55.5t-43 -31.5q77 -31 77 -104q0 -53 -47 -90.5
t-126 -37.5zM704 301q0 -18 14.5 -31.5t40.5 -13.5t41 13.5t15 31.5q0 17 -15 29.5t-41 12.5t-40.5 -12.5t-14.5 -29.5zM826 128q0 21 -18 37t-49 16q-30 0 -48 -16t-18 -37q0 -22 17.5 -38t48.5 -16t49 16t18 38z" />
    <glyph glyph-name="fiveeights" unicode="&#x215d;" horiz-adv-x="1000" 
d="M279 0h-76l506 700h76zM758 -9q-79 0 -126 37.5t-47 90.5q0 72 77 104q-24 8 -42 31.5t-18 55.5q0 44 40.5 79t115.5 35q76 0 116.5 -35t40.5 -79q0 -32 -18 -55.5t-43 -31.5q77 -31 77 -104q0 -53 -47 -90.5t-126 -37.5zM232 273q-69 0 -113.5 33t-52.5 80l102 24
q4 -24 22 -37.5t41 -13.5q27 0 45 16t18 43q0 28 -19 44t-45 16q-33 0 -52 -21l-93 19l24 224h270v-85h-193l-9 -76q34 20 79 20q56 0 101 -35.5t45 -102.5q0 -62 -47.5 -105t-122.5 -43zM703 301q0 -18 14.5 -31.5t40.5 -13.5t41 13.5t15 31.5q0 17 -15 29.5t-41 12.5
t-40.5 -12.5t-14.5 -29.5zM825 128q0 21 -18 37t-49 16q-30 0 -48 -16t-18 -37q0 -22 17.5 -38t48.5 -16t49 16t18 38z" />
    <glyph glyph-name="seveneights" unicode="&#x215e;" horiz-adv-x="1000" 
d="M264 280h-115l161 335h-202v85h310v-72zM240 0h-76l506 700h76zM719 -9q-79 0 -126 37.5t-47 90.5q0 72 77 104q-24 8 -42 31.5t-18 55.5q0 44 40.5 79t115.5 35q76 0 116.5 -35t40.5 -79q0 -32 -18 -55.5t-43 -31.5q77 -31 77 -104q0 -53 -47 -90.5t-126 -37.5zM664 301
q0 -18 14.5 -31.5t40.5 -13.5t41 13.5t15 31.5q0 17 -15 29.5t-41 12.5t-40.5 -12.5t-14.5 -29.5zM786 128q0 21 -18 37t-49 16q-30 0 -48 -16t-18 -37q0 -22 17.5 -38t48.5 -16t49 16t18 38z" />
    <glyph glyph-name="arrowup" unicode="&#x2191;" horiz-adv-x="720" 
d="M94 281v165l251 223h27l254 -222v-166l-194 171v-417h-145v418z" />
    <glyph glyph-name="arrowdown" unicode="&#x2193;" horiz-adv-x="720" 
d="M626 257l-254 -222h-27l-251 223v165l193 -172v418h145v-417l194 171v-166z" />
    <glyph glyph-name="product" unicode="&#x220f;" horiz-adv-x="881" 
d="M846 349q0 -175 -119.5 -287t-285.5 -112t-286 112t-120 287t120 288t286 113t285.5 -113t119.5 -288zM107 349q0 -146 95 -240.5t239 -94.5q143 0 238.5 94.5t95.5 240.5q0 145 -95.5 240.5t-238.5 95.5q-144 0 -239 -95.5t-95 -240.5zM482 249h-77v-142h-135v490h212
q84 0 140 -46.5t56 -127.5t-56 -127.5t-140 -46.5zM472 485h-67v-124h67q29 0 49 16.5t20 45.5t-20 45.5t-49 16.5z" />
    <glyph glyph-name="minus" unicode="&#x2212;" horiz-adv-x="640" 
d="M77 411h486v-126h-486v126z" />
    <glyph glyph-name="radical" unicode="&#x221a;" horiz-adv-x="743" 
d="M243 463l123 -347l208 694h171l-283 -880h-190l-134 351l-100 -39l-45 127z" />
    <glyph glyph-name="infinity" unicode="&#x221e;" horiz-adv-x="976" 
d="M699 85q-72 0 -129 42.5t-83 101.5q-27 -60 -83 -102t-129 -42q-97 0 -165 74.5t-68 191.5t68 191.5t165 74.5q73 0 129 -42t83 -101q26 59 83 101t129 42q98 0 166 -74.5t68 -191.5t-68 -191.5t-166 -74.5zM683 247q32 0 59 25t27 79t-27 79t-59 25q-31 0 -63 -26.5
t-54 -77.5q22 -51 54 -77.5t63 -26.5zM292 247q31 0 62.5 26.5t53.5 77.5q-22 51 -53.5 77.5t-62.5 26.5q-32 0 -59.5 -25t-27.5 -79t27.5 -79t59.5 -25z" />
    <glyph glyph-name="integral" unicode="&#x222b;" horiz-adv-x="555" 
d="M250 547q31 179 191 179q54 0 113 -19l-25 -139q-24 21 -60 21q-23 0 -39.5 -14t-20.5 -39l-104 -586q-31 -179 -191 -179q-54 0 -113 19l25 139q24 -21 60 -21q23 0 39.5 14t20.5 39z" />
    <glyph glyph-name="approxequal" unicode="&#x2248;" horiz-adv-x="640" 
d="M433 361q-40 0 -125 30.5t-108 30.5q-46 0 -63 -49l-59 38q0 50 33 94t99 44q41 0 126 -30.5t107 -30.5q46 0 63 49l59 -38q0 -50 -33 -94t-99 -44zM433 146q-40 0 -125 30.5t-108 30.5q-46 0 -63 -49l-59 38q0 50 33 94t99 44q41 0 126 -30.5t107 -30.5q46 0 63 49
l59 -38q0 -50 -33 -94t-99 -44z" />
    <glyph glyph-name="notequal" unicode="&#x2260;" horiz-adv-x="640" 
d="M563 177h-185v-72h-116v72h-185v125h185v92h-185v124h185v73h116v-73h185v-124h-185v-92h185v-125z" />
    <glyph glyph-name="lessequal" unicode="&#x2264;" horiz-adv-x="640" 
d="M548 138l-467 201v128l467 202v-142l-303 -123l303 -122v-144zM81 0v128h467v-128h-467z" />
    <glyph glyph-name="greaterequal" unicode="&#x2265;" horiz-adv-x="640" 
d="M92 138v144l303 122l-303 123v142l467 -202v-128zM559 0h-467v128h467v-128z" />
    <glyph glyph-name="filledbox" unicode="&#x25a0;" horiz-adv-x="740" 
d="M20 0v700h700v-700h-700z" />
    <glyph glyph-name="triagup" unicode="&#x25b2;" horiz-adv-x="860" 
d="M20 0l410 700l410 -700h-820z" />
    <glyph glyph-name="uni25B6" unicode="&#x25b6;" horiz-adv-x="740" 
d="M57 760l700 -410l-700 -410v820z" />
    <glyph glyph-name="triagdn" unicode="&#x25bc;" horiz-adv-x="860" 
d="M20 700h820l-410 -700z" />
    <glyph glyph-name="uni25C0" unicode="&#x25c0;" horiz-adv-x="740" 
d="M683 760v-820l-700 410z" />
    <glyph glyph-name="lozenge" unicode="&#x25ca;" horiz-adv-x="927" 
d="M464 -96l-446 446l446 446l445 -446z" />
    <glyph glyph-name="uni2B24" unicode="&#x2b24;" horiz-adv-x="740" 
d="M370 0q-145 0 -247.5 102.5t-102.5 247.5t102.5 247.5t247.5 102.5t247.5 -102.5t102.5 -247.5t-102.5 -247.5t-247.5 -102.5z" />
    <glyph glyph-name="commaaccent" unicode="&#xf6c3;" horiz-adv-x="259" 
d="M120 -306h-77v73h39q31 0 31 31v18h-70v139h174v-171q0 -90 -97 -90z" />
    <glyph glyph-name="i.TRK" horiz-adv-x="264" 
d="M52 700h160v-146h-160v146zM52 494h160v-494h-160v494z" />
    <glyph glyph-name="revcommaaccent" horiz-adv-x="276" 
d="M155 670h68v-73h-31q-16 0 -22.5 -6.5t-6.5 -22.5v-11h60v-159h-165v183q0 89 97 89z" />
    <glyph glyph-name="hyphen.case" horiz-adv-x="380" 
d="M53 280v152h274v-152h-274z" />
    <glyph glyph-name="endash.case" horiz-adv-x="637" 
d="M54 291v141h529v-141h-529z" />
    <glyph glyph-name="emdash.case" horiz-adv-x="1029" 
d="M50 291v141h928v-141h-928z" />
    <glyph glyph-name="guilsinglleft.case" horiz-adv-x="366" 
d="M254 84l-217 198v123l217 198l77 -76l-135 -183v-2l135 -181z" />
    <glyph glyph-name="guilsinglright.case" horiz-adv-x="366" 
d="M112 84l-77 77l135 181v2l-135 183l77 76l217 -198v-123z" />
    <glyph glyph-name="guillemotleft.case" horiz-adv-x="604" 
d="M479 96l-218 253v2l218 252l87 -70l-95 -182v-2l95 -182zM246 96l-217 233v42l217 232l87 -70l-116 -182v-2l116 -182z" />
    <glyph glyph-name="guillemotright.case" horiz-adv-x="605" 
d="M126 96l-88 71l95 182v2l-95 182l88 70l218 -252v-2zM359 96l-88 71l116 182v2l-116 182l88 70l217 -232v-42z" />
    <glyph glyph-name="zero.tnum" horiz-adv-x="640" 
d="M321 -11q-133 0 -209 98.5t-76 262.5q0 165 76 263t209 98q132 0 207 -98t75 -263q0 -164 -75 -262.5t-207 -98.5zM321 140q49 0 77.5 53t28.5 157q0 103 -28.5 156.5t-77.5 53.5t-78 -53.5t-29 -156.5q0 -104 28.5 -157t78.5 -53z" />
    <glyph glyph-name="one.tnum" horiz-adv-x="640" 
d="M564 0h-456v142h140v416h-154l33 142h297v-558h140v-142z" />
    <glyph glyph-name="two.tnum" horiz-adv-x="640" 
d="M585 0h-528v135q202 142 275 208.5t73 128.5q0 44 -27 67.5t-62 23.5q-49 0 -73 -29.5t-24 -68.5q0 -26 6 -48h-163q-8 24 -8 62q0 95 70 163t199 68q121 0 188.5 -65.5t67.5 -160.5q0 -47 -19.5 -91t-44 -75t-71 -68t-74.5 -56t-81 -51h296v-143z" />
    <glyph glyph-name="three.tnum" horiz-adv-x="639" 
d="M308 292h-53v125h52q46 0 70 22.5t24 56.5q0 29 -23.5 51.5t-63.5 22.5q-47 0 -73.5 -25.5t-28.5 -69.5l-161 19q8 96 78.5 156.5t192.5 60.5q118 0 183.5 -57t65.5 -133q0 -104 -95 -149q59 -21 88.5 -66t29.5 -101q0 -90 -74.5 -153t-202.5 -63q-127 0 -205.5 67.5
t-70.5 168.5l165 18q3 -57 36 -82t76 -25q38 0 68 20t30 60q0 38 -31.5 57t-76.5 19z" />
    <glyph glyph-name="four.tnum" horiz-adv-x="640" 
d="M515 0h-166v162h-328v122l298 415h196v-404h90v-133h-90v-162zM349 540l-172 -245h172v245z" />
    <glyph glyph-name="five.tnum" horiz-adv-x="640" 
d="M36 176l171 39q7 -38 37.5 -60.5t68.5 -22.5q45 0 75 27t30 71q0 46 -31 72.5t-74 26.5q-54 0 -90 -36l-153 32l39 375h447v-142h-318l-14 -128q55 35 133 35q42 0 82.5 -13.5t76.5 -40t58.5 -73t22.5 -105.5q0 -101 -79 -172.5t-204 -71.5q-114 0 -188 54.5t-90 132.5z
" />
    <glyph glyph-name="six.tnum" horiz-adv-x="640" 
d="M331 -12q-127 0 -206 75t-79 180q0 106 61 213.5t193 243.5h199l-222 -252q44 22 98 22q96 0 165.5 -64.5t69.5 -173.5q0 -91 -74.5 -167.5t-204.5 -76.5zM219 233q0 -45 32 -74.5t77 -29.5t77 29.5t32 74.5t-32 75t-77 30t-77 -30t-32 -75z" />
    <glyph glyph-name="seven.tnum" horiz-adv-x="640" 
d="M322 0h-191l266 558h-336v142h517v-120z" />
    <glyph glyph-name="eight.tnum" horiz-adv-x="640" 
d="M320 -11q-133 0 -210.5 62t-77.5 150q0 65 37 108.5t91 64.5q-42 15 -71.5 53.5t-29.5 92.5q0 72 67.5 131.5t193.5 59.5t193.5 -59.5t67.5 -131.5q0 -54 -29.5 -92.5t-71.5 -53.5q54 -21 91 -64.5t37 -108.5q0 -88 -78 -150t-210 -62zM320 430q43 0 68.5 22t25.5 52
q0 29 -25.5 50t-68.5 21q-42 0 -67.5 -21t-25.5 -50q0 -30 25.5 -52t67.5 -22zM320 126q51 0 81 26.5t30 62.5t-30 62.5t-81 26.5t-81 -26.5t-30 -62.5t30 -62.5t81 -26.5z" />
    <glyph glyph-name="nine.tnum" horiz-adv-x="640" 
d="M340 0h-199l222 252q-44 -22 -98 -22q-96 0 -165.5 64.5t-69.5 173.5q0 91 74.5 167.5t204.5 76.5q127 0 206 -75t79 -180q0 -106 -61 -213.5t-193 -243.5zM421 467q0 45 -32 74.5t-77 29.5t-77 -29.5t-32 -74.5t32 -75t77 -30t77 30t32 75z" />
    <glyph glyph-name="zero.onum" horiz-adv-x="614" 
d="M307 -11q-118 0 -192 81t-74 205t74 205t192 81t192 -81t74 -205t-74 -205t-192 -81zM307 127q45 0 72 39t27 109q0 69 -27.5 108t-71.5 39t-71.5 -39t-27.5 -108q0 -70 27 -109t72 -39z" />
    <glyph glyph-name="one.onum" horiz-adv-x="371" 
d="M305 0h-165v418h-130l34 133h261v-551z" />
    <glyph glyph-name="two.onum" horiz-adv-x="582" 
d="M535 0h-482v111q192 111 235 144q70 53 70 100q0 36 -23.5 55.5t-53.5 19.5q-42 0 -63 -23.5t-21 -55.5q0 -20 8 -38l-155 -1q-7 32 -7 54q0 82 66 138.5t176 56.5q105 0 171 -53.5t66 -136.5q0 -76 -56.5 -133t-158.5 -104h228v-134z" />
    <glyph glyph-name="three.onum" horiz-adv-x="590" 
d="M284 171h-49v114h49q42 0 64 21.5t22 53.5q0 27 -21.5 48t-58.5 21q-44 0 -69 -24t-26 -65l-151 18q8 90 74 146t180 57q109 0 170.5 -53.5t61.5 -124.5q0 -97 -89 -138q54 -20 81.5 -62t27.5 -94q0 -84 -69 -142.5t-189 -58.5q-118 0 -191 63t-66 156l154 18
q2 -54 33 -77t71 -23q36 0 63.5 18t27.5 56q0 36 -27.5 54t-72.5 18z" />
    <glyph glyph-name="four.onum" horiz-adv-x="601" 
d="M488 -101h-156v151h-305v114l277 387h184v-377h84v-124h-84v-151zM332 402l-159 -228h159v228z" />
    <glyph glyph-name="five.onum" horiz-adv-x="571" 
d="M20 62l160 37q7 -36 34.5 -57t63.5 -21q41 0 69 25.5t28 66.5q0 43 -28.5 67t-68.5 24q-48 0 -84 -34l-143 31l37 350h421v-133h-301l-13 -119q54 33 124 33q53 0 102 -21t85 -72t36 -123q0 -96 -73 -162t-190 -66q-107 0 -176 51t-83 123z" />
    <glyph glyph-name="six.onum" horiz-adv-x="584" 
d="M301 -11q-121 0 -193 69t-72 168q0 96 54 195t182 231h191l-204 -232q33 18 80 18q92 0 157.5 -60t65.5 -162q0 -85 -69.5 -156t-191.5 -71zM198 217q0 -42 29.5 -69t71.5 -27t71.5 27t29.5 69q0 43 -29.5 70.5t-71.5 27.5t-71.5 -27.5t-29.5 -70.5z" />
    <glyph glyph-name="seven.onum" horiz-adv-x="516" 
d="M260 -102h-177l247 520h-313v133h482v-112z" />
    <glyph glyph-name="eight.onum" horiz-adv-x="614" 
d="M308 -11q-124 0 -196.5 57.5t-72.5 140.5q0 60 34.5 100.5t84.5 60.5q-39 14 -66.5 49.5t-27.5 85.5q0 68 63 123.5t181 55.5q117 0 180 -55.5t63 -123.5q0 -50 -27.5 -85.5t-66.5 -49.5q50 -20 84.5 -60.5t34.5 -100.5q0 -83 -72.5 -140.5t-195.5 -57.5zM308 401
q39 0 62.5 20t23.5 48q0 26 -23.5 46t-62.5 20q-40 0 -63.5 -20t-23.5 -46q0 -28 23.5 -48t63.5 -20zM308 282q-48 0 -76 -24.5t-28 -57.5q0 -34 28 -58.5t76 -24.5q47 0 75 24.5t28 58.5q0 33 -28 57.5t-75 24.5z" />
    <glyph glyph-name="nine.onum" horiz-adv-x="584" 
d="M282 561q121 0 193.5 -69.5t72.5 -168.5q0 -96 -54.5 -194.5t-182.5 -230.5h-191l205 232q-35 -19 -80 -19q-93 0 -158.5 60t-65.5 162q0 39 16.5 78.5t47.5 73.5t82.5 55t114.5 21zM386 332q0 42 -30 69t-72 27q-41 0 -70.5 -27t-29.5 -69q0 -43 29.5 -70.5t70.5 -27.5
q42 0 72 27.5t30 70.5z" />
    <glyph glyph-name="zero.numr" 
d="M364 493q0 -98 -45 -157.5t-124 -59.5q-80 0 -125.5 59.5t-45.5 157.5q0 99 45.5 157.5t125.5 58.5q79 0 124 -58.5t45 -157.5zM258 493q0 126 -63 126t-63 -126t63 -126t63 126z" />
    <glyph glyph-name="one.numr" 
d="M339 280h-272v85h83v250h-89l18 85h176v-335h84v-85z" />
    <glyph glyph-name="two.numr" 
d="M352 280h-317v79q121 84 165 124.5t44 76.5q0 28 -16.5 42.5t-37.5 14.5q-29 0 -42.5 -18t-13.5 -42q0 -18 3 -27h-98q-5 20 -5 38q0 57 42 98t119 41q72 0 113.5 -41t41.5 -98q0 -106 -171 -202h173v-86z" />
    <glyph glyph-name="three.numr" horiz-adv-x="389" 
d="M193 273q-77 0 -124 40.5t-43 101.5l100 12q1 -35 21 -50t46 -15q23 0 41 12t18 36q0 23 -18.5 35t-45.5 12h-32v73h32q27 0 41 14t14 34q0 17 -14.5 30.5t-38.5 13.5q-27 0 -43.5 -15.5t-17.5 -40.5l-97 11q5 57 47.5 93t116.5 36q70 1 109.5 -34t39.5 -80
q0 -62 -57 -89q35 -11 52.5 -38.5t17.5 -61.5q0 -54 -44.5 -92t-120.5 -38z" />
    <glyph glyph-name="four.numr" 
d="M214 280v97h-208v73l189 250h119v-242h64v-81h-64v-97h-100zM214 458v151l-113 -151h113z" />
    <glyph glyph-name="five.numr" 
d="M190 273q-69 0 -113.5 33t-52.5 80l102 24q4 -24 22 -37.5t41 -13.5q27 0 45 16t18 43q0 28 -19 44t-45 16q-33 0 -52 -21l-93 19l24 224h270v-85h-193l-9 -76q34 20 79 20q56 0 101 -35.5t45 -102.5q0 -62 -47.5 -105t-122.5 -43z" />
    <glyph glyph-name="six.numr" 
d="M201 271q-76 0 -123.5 45t-47.5 107q0 63 36.5 127.5t115.5 147.5h120l-133 -151q28 13 59 13q57 0 98.5 -38.5t41.5 -105.5q0 -54 -44.5 -99.5t-122.5 -45.5zM199 481q-27 0 -46 -18t-19 -46q0 -26 19 -43.5t46 -17.5q28 0 47 17t19 44q0 28 -19 46t-47 18z" />
    <glyph glyph-name="seven.numr" 
d="M196 280h-115l161 335h-202v85h310v-72z" />
    <glyph glyph-name="eight.numr" 
d="M194 273q-79 0 -126 37.5t-47 90.5q0 72 77 104q-24 8 -42 31.5t-18 55.5q0 44 40.5 79t115.5 35q76 0 116.5 -35t40.5 -79q0 -32 -18 -55.5t-43 -31.5q77 -31 77 -104q0 -53 -47 -90.5t-126 -37.5zM139 583q0 -18 14.5 -31.5t40.5 -13.5t41 13.5t15 31.5q0 17 -15 29.5
t-41 12.5t-40.5 -12.5t-14.5 -29.5zM261 410q0 21 -18 37t-49 16q-30 0 -48 -16t-18 -37q0 -22 17.5 -38t48.5 -16t49 16t18 38z" />
    <glyph glyph-name="nine.numr" 
d="M86 280l133 151q-28 -13 -59 -13q-57 0 -98.5 39t-41.5 104q0 55 44.5 100.5t122.5 45.5q76 0 123.5 -45t47.5 -108q0 -64 -36.5 -127.5t-115.5 -146.5h-120zM189 496q27 0 46 18t19 46q0 27 -19 44.5t-46 17.5t-46.5 -17.5t-19.5 -44.5q0 -28 19.5 -46t46.5 -18z" />
    <glyph glyph-name="zero.dnom" 
d="M364 208q0 -98 -45 -157.5t-124 -59.5q-80 0 -125.5 59.5t-45.5 157.5q0 99 45.5 157.5t125.5 58.5q79 0 124 -58.5t45 -157.5zM258 208q0 126 -63 126t-63 -126t63 -126t63 126z" />
    <glyph glyph-name="one.dnom" 
d="M339 0h-272v85h83v250h-89l18 85h176v-335h84v-85z" />
    <glyph glyph-name="two.dnom" 
d="M352 0h-317v79q121 84 165 124.5t44 76.5q0 28 -16.5 42.5t-37.5 14.5q-29 0 -42.5 -18t-13.5 -42q0 -18 3 -27h-98q-5 20 -5 38q0 57 42 98t119 41q72 0 113.5 -41t41.5 -98q0 -106 -171 -202h173v-86z" />
    <glyph glyph-name="three.dnom" 
d="M193 -9q-77 0 -124 40.5t-43 101.5l100 12q1 -35 21 -50t46 -15q23 0 41 12t18 36q0 23 -18.5 35t-45.5 12h-32v73h32q27 0 41 14t14 34q0 17 -14.5 30.5t-38.5 13.5q-27 0 -43.5 -15.5t-17.5 -40.5l-97 11q5 57 47.5 93t116.5 36q70 1 109.5 -34t39.5 -80q0 -62 -57 -89
q35 -11 52.5 -38.5t17.5 -61.5q0 -54 -44.5 -92t-120.5 -38z" />
    <glyph glyph-name="four.dnom" 
d="M214 0v97h-208v73l189 250h119v-242h64v-81h-64v-97h-100zM214 178v151l-113 -151h113z" />
    <glyph glyph-name="five.dnom" 
d="M190 -7q-69 0 -113.5 33t-52.5 80l102 24q4 -24 22 -37.5t41 -13.5q27 0 45 16t18 43q0 28 -19 44t-45 16q-33 0 -52 -21l-93 19l24 224h270v-85h-193l-9 -76q34 20 79 20q56 0 101 -35.5t45 -102.5q0 -62 -47.5 -105t-122.5 -43z" />
    <glyph glyph-name="six.dnom" 
d="M201 -9q-76 0 -123.5 45t-47.5 107q0 63 36.5 127.5t115.5 147.5h120l-133 -151q28 13 59 13q57 0 98.5 -38.5t41.5 -105.5q0 -54 -44.5 -99.5t-122.5 -45.5zM199 201q-27 0 -46 -18t-19 -46q0 -26 19 -43.5t46 -17.5q28 0 47 17t19 44q0 28 -19 46t-47 18z" />
    <glyph glyph-name="seven.dnom" 
d="M196 0h-115l161 335h-202v85h310v-72z" />
    <glyph glyph-name="eight.dnom" 
d="M194 -9q-79 0 -126 37.5t-47 90.5q0 72 77 104q-24 8 -42 31.5t-18 55.5q0 44 40.5 79t115.5 35q76 0 116.5 -35t40.5 -79q0 -32 -18 -55.5t-43 -31.5q77 -31 77 -104q0 -53 -47 -90.5t-126 -37.5zM139 301q0 -18 14.5 -31.5t40.5 -13.5t41 13.5t15 31.5q0 17 -15 29.5
t-41 12.5t-40.5 -12.5t-14.5 -29.5zM261 128q0 21 -18 37t-49 16q-30 0 -48 -16t-18 -37q0 -22 17.5 -38t48.5 -16t49 16t18 38z" />
    <glyph glyph-name="nine.dnom" 
d="M86 0l133 151q-28 -13 -59 -13q-57 0 -98.5 39t-41.5 104q0 55 44.5 100.5t122.5 45.5q76 0 123.5 -45t47.5 -108q0 -64 -36.5 -127.5t-115.5 -146.5h-120zM189 216q27 0 46 18t19 46q0 27 -19 44.5t-46 17.5t-46.5 -17.5t-19.5 -44.5q0 -28 19.5 -46t46.5 -18z" />
    <glyph glyph-name="less.alt" horiz-adv-x="720" 
d="M34 367l223 252h165l-171 -194h421v-141h-421l171 -194h-167l-221 254v23z" />
    <glyph glyph-name="greater.alt" horiz-adv-x="720" 
d="M685 367v-23l-221 -254h-168l172 194h-421v141h421l-171 194h166z" />
    <glyph glyph-name="arrowdownleft" horiz-adv-x="720" 
d="M488 94l-338 23l-17 17l-22 335l120 118l15 -259l296 297l100 -102l-296 -296l256 -17z" />
    <glyph glyph-name="arrowdownright" horiz-adv-x="720" 
d="M232 94l-114 116l257 16l-297 297l101 102l296 -297l15 259l119 -118l-21 -336l-18 -17z" />
    <glyph glyph-name="arrowupleft" horiz-adv-x="720" 
d="M542 94l-296 297l-15 -259l-120 118l22 335l17 18l338 22l114 -116l-256 -17l296 -296z" />
    <glyph glyph-name="arrowupright" horiz-adv-x="720" 
d="M179 94l-101 102l297 297l-257 16l114 116l338 -22l18 -17l21 -336l-119 -118l-15 259z" />
    <glyph glyph-name="a.alt" horiz-adv-x="532" 
d="M306 222l-67 -19q-51 -14 -51 -55q0 -20 14.5 -34t37.5 -14q29 0 47.5 16t18.5 44v62zM189 -11q-73 0 -119 44t-46 101q0 120 161 153l121 24v9q0 26 -18 42t-46 16q-27 0 -48 -14t-32 -34l-132 56q28 57 88.5 88.5t138.5 31.5q97 0 153 -47.5t56 -131.5v-196
q0 -27 22 -27q11 0 20 3v-107q-33 -10 -78 -10q-86 0 -109 55q-42 -56 -132 -56z" />
    <glyph glyph-name="aacute.alt" horiz-adv-x="532" 
d="M417 640l-257 -111l-54 88l238 148zM306 222l-67 -19q-51 -14 -51 -55q0 -20 14.5 -34t37.5 -14q29 0 47.5 16t18.5 44v62zM189 -11q-73 0 -119 44t-46 101q0 120 161 153l121 24v9q0 26 -18 42t-46 16q-27 0 -48 -14t-32 -34l-132 56q28 57 88.5 88.5t138.5 31.5
q97 0 153 -47.5t56 -131.5v-196q0 -27 22 -27q11 0 20 3v-107q-33 -10 -78 -10q-86 0 -109 55q-42 -56 -132 -56z" />
    <glyph glyph-name="atilde.alt" horiz-adv-x="532" 
d="M192 597q-26 0 -29 -29h-87q0 73 28 111.5t80 38.5q24 0 77 -16.5t64 -16.5q26 0 30 29h86q0 -73 -28 -111.5t-80 -38.5q-24 0 -76.5 16.5t-64.5 16.5zM306 222l-67 -19q-51 -14 -51 -55q0 -20 14.5 -34t37.5 -14q29 0 47.5 16t18.5 44v62zM189 -11q-73 0 -119 44
t-46 101q0 120 161 153l121 24v9q0 26 -18 42t-46 16q-27 0 -48 -14t-32 -34l-132 56q28 57 88.5 88.5t138.5 31.5q97 0 153 -47.5t56 -131.5v-196q0 -27 22 -27q11 0 20 3v-107q-33 -10 -78 -10q-86 0 -109 55q-42 -56 -132 -56z" />
    <glyph glyph-name="aogonek.alt" horiz-adv-x="532" 
d="M433 -207q-50 0 -82.5 22.5t-32.5 67.5q0 57 63 113q-44 13 -60 49q-42 -56 -132 -56q-73 0 -119 44t-46 101q0 120 161 153l121 24v9q0 26 -18 42t-46 16q-27 0 -48 -14t-32 -34l-132 56q28 57 88.5 88.5t138.5 31.5q97 0 153 -47.5t56 -131.5v-196q0 -27 22 -27
q11 0 20 3v-107l-25 -5q-34 -52 -34 -77q0 -30 39 -30q8 0 26 2v-87q-46 -10 -81 -10zM306 222l-67 -19q-51 -14 -51 -55q0 -20 14.5 -34t37.5 -14q29 0 47.5 16t18.5 44v62z" />
    <glyph glyph-name="acircumflex.alt" horiz-adv-x="532" 
d="M307 558l-52 63l-52 -63h-132l111 179h147l111 -179h-133zM306 222l-67 -19q-51 -14 -51 -55q0 -20 14.5 -34t37.5 -14q29 0 47.5 16t18.5 44v62zM189 -11q-73 0 -119 44t-46 101q0 120 161 153l121 24v9q0 26 -18 42t-46 16q-27 0 -48 -14t-32 -34l-132 56
q28 57 88.5 88.5t138.5 31.5q97 0 153 -47.5t56 -131.5v-196q0 -27 22 -27q11 0 20 3v-107q-33 -10 -78 -10q-86 0 -109 55q-42 -56 -132 -56z" />
    <glyph glyph-name="adieresis.alt" horiz-adv-x="532" 
d="M280 555v148h158v-148h-158zM79 555v148h158v-148h-158zM306 222l-67 -19q-51 -14 -51 -55q0 -20 14.5 -34t37.5 -14q29 0 47.5 16t18.5 44v62zM189 -11q-73 0 -119 44t-46 101q0 120 161 153l121 24v9q0 26 -18 42t-46 16q-27 0 -48 -14t-32 -34l-132 56
q28 57 88.5 88.5t138.5 31.5q97 0 153 -47.5t56 -131.5v-196q0 -27 22 -27q11 0 20 3v-107q-33 -10 -78 -10q-86 0 -109 55q-42 -56 -132 -56z" />
    <glyph glyph-name="abreve.alt" horiz-adv-x="532" 
d="M95 719h111v-15q0 -24 14.5 -36t37.5 -12q52 0 52 48v15h112v-40q0 -59 -44 -96.5t-120 -37.5q-77 0 -120 37.5t-43 96.5v40zM306 222l-67 -19q-51 -14 -51 -55q0 -20 14.5 -34t37.5 -14q29 0 47.5 16t18.5 44v62zM189 -11q-73 0 -119 44t-46 101q0 120 161 153l121 24v9
q0 26 -18 42t-46 16q-27 0 -48 -14t-32 -34l-132 56q28 57 88.5 88.5t138.5 31.5q97 0 153 -47.5t56 -131.5v-196q0 -27 22 -27q11 0 20 3v-107q-33 -10 -78 -10q-86 0 -109 55q-42 -56 -132 -56z" />
    <glyph glyph-name="agrave.alt" horiz-adv-x="532" 
d="M94 640l73 125l238 -148l-55 -88zM306 222l-67 -19q-51 -14 -51 -55q0 -20 14.5 -34t37.5 -14q29 0 47.5 16t18.5 44v62zM189 -11q-73 0 -119 44t-46 101q0 120 161 153l121 24v9q0 26 -18 42t-46 16q-27 0 -48 -14t-32 -34l-132 56q28 57 88.5 88.5t138.5 31.5
q97 0 153 -47.5t56 -131.5v-196q0 -27 22 -27q11 0 20 3v-107q-33 -10 -78 -10q-86 0 -109 55q-42 -56 -132 -56z" />
    <glyph glyph-name="aring.alt" horiz-adv-x="532" 
d="M109 666q0 60 43.5 102t106.5 42t106 -42t43 -102t-43 -102t-106 -42t-106.5 42t-43.5 102zM201 666q0 -25 16.5 -42t41.5 -17t41 17t16 42q0 26 -16 42.5t-41 16.5t-41.5 -16.5t-16.5 -42.5zM306 222l-67 -19q-51 -14 -51 -55q0 -20 14.5 -34t37.5 -14q29 0 47.5 16
t18.5 44v62zM189 -11q-73 0 -119 44t-46 101q0 120 161 153l121 24v9q0 26 -18 42t-46 16q-27 0 -48 -14t-32 -34l-132 56q28 57 88.5 88.5t138.5 31.5q97 0 153 -47.5t56 -131.5v-196q0 -27 22 -27q11 0 20 3v-107q-33 -10 -78 -10q-86 0 -109 55q-42 -56 -132 -56z" />
    <glyph glyph-name="amacron.alt" horiz-adv-x="532" 
d="M93 568v111h333v-111h-333zM306 222l-67 -19q-51 -14 -51 -55q0 -20 14.5 -34t37.5 -14q29 0 47.5 16t18.5 44v62zM189 -11q-73 0 -119 44t-46 101q0 120 161 153l121 24v9q0 26 -18 42t-46 16q-27 0 -48 -14t-32 -34l-132 56q28 57 88.5 88.5t138.5 31.5q97 0 153 -47.5
t56 -131.5v-196q0 -27 22 -27q11 0 20 3v-107q-33 -10 -78 -10q-86 0 -109 55q-42 -56 -132 -56z" />
    <glyph glyph-name="t.alt" horiz-adv-x="377" 
d="M367 371h-105v-371h-160v371h-85v123h85v205h160v-205h105v-123z" />
    <glyph glyph-name="orn.002" horiz-adv-x="652" 
d="M243 -12q-106 0 -191 47l11 15q77 -46 179 -46q150 0 254 106.5t104 257.5q0 148 -92 249l-2 -2q52 -78 52 -163q0 -110 -77.5 -189t-186.5 -79q-112 0 -190.5 79t-78.5 189t79 187t191 77q136 0 230 -95t94 -253q0 -159 -108.5 -269.5t-267.5 -110.5z" />
    <glyph glyph-name="orn.001" horiz-adv-x="652" 
d="M409 716q106 0 191 -47l-11 -15q-77 46 -179 46q-150 0 -254 -106.5t-104 -257.5q0 -148 92 -249l2 2q-52 78 -52 163q0 110 77.5 189t186.5 79q112 0 190.5 -79t78.5 -189t-79 -187t-191 -77q-136 0 -230 95t-94 253q0 159 108.5 269.5t267.5 110.5z" />
    <glyph glyph-name="K.alt" horiz-adv-x="680" 
d="M482 0l-236 336v-336h-176v700h176v-324l232 324h197l-250 -329l265 -371h-208z" />
    <glyph glyph-name="Tcedilla" horiz-adv-x="642" 
d="M628 554h-219v-554h-175v554h-220v146h614v-146zM312 -306h-78v73h39q31 0 31 31v18h-70v139h175v-171q0 -90 -97 -90z" />
    </font>
</defs>
</svg>
